<svg width="86" height="86" viewBox="0 0 86 86" fill="none" xmlns="http://www.w3.org/2000/svg">
<rect width="86" height="86" rx="43" fill="url(#paint0_linear_227_1063)"/>
<path d="M60.889 27.6667H25.1112C24.4334 27.6667 23.7834 27.9359 23.3042 28.4152C22.8249 28.8945 22.5557 29.5445 22.5557 30.2222V55.7778C22.5557 56.4556 22.8249 57.1056 23.3042 57.5848C23.7834 58.0641 24.4334 58.3334 25.1112 58.3334H60.889C61.5668 58.3334 62.2168 58.0641 62.696 57.5848C63.1753 57.1056 63.4445 56.4556 63.4445 55.7778V30.2222C63.4445 29.5445 63.1753 28.8945 62.696 28.4152C62.2168 27.9359 61.5668 27.6667 60.889 27.6667V27.6667ZM58.9212 55.7778H27.2323L36.1768 46.5267L34.3368 44.7506L25.1112 54.2956V32.1645L40.994 47.9706C41.4728 48.4465 42.1205 48.7137 42.7957 48.7137C43.4708 48.7137 44.1185 48.4465 44.5973 47.9706L60.889 31.7684V54.1295L51.4845 44.725L49.6829 46.5267L58.9212 55.7778ZM26.7851 30.2222H58.819L42.7957 46.1561L26.7851 30.2222Z" fill="white"/>
<defs>
<linearGradient id="paint0_linear_227_1063" x1="43" y1="0" x2="43" y2="86" gradientUnits="userSpaceOnUse">
<stop stop-color="#3A75D1"/>
<stop offset="1" stop-color="#54BBEC"/>
</linearGradient>
</defs>
</svg>
