<svg width="806" height="487" viewBox="0 0 806 487" fill="none" xmlns="http://www.w3.org/2000/svg">
<path d="M791.436 33.8082H671.938V231.61H791.436V33.8082Z" fill="#E0E0E0"/>
<path d="M787.468 33.8082H667.971V231.61H787.468V33.8082Z" fill="#EBEBEB"/>
<path d="M782.372 37.8214H673.056V227.597H782.372V37.8214Z" fill="#FAFAFA"/>
<path d="M761.085 62.4825H693.863V202.947H761.085V62.4825Z" fill="#EBEBEB"/>
<path d="M693.863 153.237C693.715 140.114 705.515 127.311 718.501 125.475C724.704 124.608 731.282 125.828 737.074 123.457C747.404 119.227 750.687 105.488 761.085 101.418L761.564 202.947H693.863V153.237Z" fill="#E0E0E0"/>
<path d="M194.598 76.7911C195.225 77.2164 195.802 77.7096 196.32 78.2619C197.323 79.2196 198.691 80.5422 200.174 82.07C201.656 83.5977 202.99 84.9659 203.925 85.992C204.472 86.512 204.958 87.0935 205.373 87.725C204.743 87.3041 204.165 86.8104 203.651 86.2543C202.648 85.2965 201.28 83.974 199.786 82.4348C198.292 80.8956 196.97 79.5389 196.035 78.5127C195.492 77.9952 195.01 77.4176 194.598 76.7911V76.7911Z" fill="#E0E0E0"/>
<path d="M89.2729 166.611C92.2417 171.346 95.7418 175.726 99.7052 179.665Z" fill="white"/>
<path d="M99.705 179.665C99.0414 179.183 98.4334 178.629 97.8922 178.012C96.5015 176.599 95.1848 175.115 93.9473 173.566C92.4993 171.753 91.3022 170.031 90.5269 168.754C90.0456 168.087 89.6402 167.368 89.3184 166.611C89.8506 167.233 90.3382 167.892 90.7777 168.583C91.6556 169.815 92.8984 171.491 94.3349 173.303C95.7715 175.116 97.1511 176.724 98.1544 177.807C98.7208 178.383 99.2394 179.005 99.705 179.665V179.665Z" fill="#E0E0E0"/>
<path d="M19.2227 179.312L29.6549 166.44Z" fill="white"/>
<path d="M804.615 486.282C804.615 486.441 624.474 486.578 402.331 486.578C180.187 486.578 0 486.441 0 486.282C0 486.122 180.141 485.985 402.331 485.985C624.52 485.985 804.615 486.122 804.615 486.282Z" fill="#263238"/>
<path d="M198.418 130.731H712.356C714.394 130.731 716.349 131.54 717.79 132.982C719.231 134.423 720.041 136.377 720.041 138.415V464.916C720.041 469.321 718.291 473.547 715.175 476.662C712.06 479.777 707.835 481.527 703.429 481.527H206.205C201.799 481.527 197.574 479.777 194.459 476.662C191.343 473.547 189.593 469.321 189.593 464.916V139.578C189.593 137.235 190.524 134.987 192.181 133.33C193.838 131.673 196.086 130.742 198.429 130.742L198.418 130.731Z" fill="#263238"/>
<path d="M167.44 455.578H742.068V470.628C742.068 472.682 741.664 474.716 740.877 476.614C740.091 478.512 738.939 480.236 737.487 481.689C736.034 483.141 734.31 484.293 732.412 485.079C730.514 485.866 728.48 486.27 726.426 486.27H183.049C178.906 486.261 174.936 484.609 172.01 481.677C169.084 478.744 167.44 474.77 167.44 470.628V455.578Z" fill="#263238"/>
<path d="M704.318 144.675H203.822V440.904H704.318V144.675Z" fill="#F5F5F5"/>
<path d="M402.524 455.578L409.65 466.922H510.005L516.629 455.578H402.524Z" fill="#455A64"/>
<path d="M720.132 455.475H189.673V457.163H720.132V455.475Z" fill="#455A64"/>
<path d="M651.21 103.185H674.857V360.194C674.857 377.182 663.695 390.978 649.922 390.978H623.277V103.185H651.21Z" fill="#E0E0E0"/>
<path d="M651.21 103.185H649.398H644.05L623.277 103.242L623.391 103.128C623.391 151.652 623.494 261.413 623.574 390.898L623.277 390.602H647.585C648.725 390.602 649.785 390.602 650.857 390.545L652.476 390.442L654.061 390.134C658.281 389.211 662.145 387.089 665.189 384.023C668.2 381.005 670.532 377.378 672.029 373.386C673.55 369.446 674.376 365.272 674.469 361.049C674.469 344.141 674.469 327.666 674.469 311.716C674.469 279.792 674.469 249.989 674.469 223.082C674.469 169.29 674.572 127.139 674.606 103.128L674.709 103.231H657.071H652.579H651.062H652.579H657.071H674.709H674.823V103.345C674.823 127.356 674.891 169.473 674.948 223.298C674.948 250.205 674.948 280.02 674.948 311.932C674.948 327.894 674.948 344.343 674.948 361.277C674.856 365.571 674.015 369.815 672.463 373.819C670.92 377.894 668.521 381.592 665.428 384.662C662.31 387.805 658.351 389.982 654.027 390.932L652.385 391.24L650.732 391.354C649.591 391.457 648.531 391.354 647.425 391.411H622.981V390.978C623.061 261.493 623.129 151.732 623.152 103.208V103.083H623.277H644.05H649.398L651.21 103.185Z" fill="#263238"/>
<path d="M604 387H198.371C192.439 386.997 186.75 384.977 182.556 381.383C178.361 377.789 176.003 372.915 176 367.833V77H604V387Z" fill="white"/>
<path d="M651.211 390.978C651.211 388.88 651.108 247.104 650.96 29.2133L651.211 29.4641H228.084H223.307L223.603 29.1677C223.603 137.024 223.603 239.716 223.603 333.07V367.639C223.534 370.444 223.962 373.239 224.869 375.894C226.257 379.823 228.726 383.281 231.991 385.871C235.256 388.46 239.185 390.076 243.327 390.533C246.03 390.761 248.812 390.636 251.548 390.67H307.585L422.956 390.727L651.302 390.921L423.104 391.115H307.642H251.468C248.709 391.115 245.984 391.206 243.179 390.978C238.956 390.53 234.945 388.902 231.604 386.281C228.263 383.66 225.728 380.151 224.287 376.156C223.352 373.444 222.908 370.587 222.976 367.719V333.093C222.976 239.739 222.976 136.99 222.976 29.1905V28.8941H228.118H651.245H651.496V29.1449C651.313 247.082 651.211 388.857 651.211 390.978Z" fill="#263238"/>
<path d="M651.21 61.9238C651.21 62.0834 555.439 62.2202 437.241 62.2202C319.044 62.2202 223.238 62.0834 223.238 61.9238C223.238 61.7641 319.01 61.6273 437.241 61.6273C555.473 61.6273 651.21 61.7527 651.21 61.9238Z" fill="#263238"/>
<path d="M516.321 45.7681C516.321 45.9277 482.334 46.0645 440.434 46.0645C398.534 46.0645 364.546 45.9277 364.546 45.7681C364.546 45.6085 398.522 45.4716 440.434 45.4716C482.345 45.4716 516.321 45.5971 516.321 45.7681Z" fill="white"/>
<path d="M237.616 49.3822C239.87 49.3822 241.697 47.5548 241.697 45.3005C241.697 43.0463 239.87 41.2189 237.616 41.2189C235.361 41.2189 233.534 43.0463 233.534 45.3005C233.534 47.5548 235.361 49.3822 237.616 49.3822Z" fill="white"/>
<path d="M251.456 49.3822C253.711 49.3822 255.538 47.5548 255.538 45.3005C255.538 43.0463 253.711 41.2189 251.456 41.2189C249.202 41.2189 247.375 43.0463 247.375 45.3005C247.375 47.5548 249.202 49.3822 251.456 49.3822Z" fill="white"/>
<path d="M265.286 49.3822C267.541 49.3822 269.368 47.5548 269.368 45.3005C269.368 43.0463 267.541 41.2189 265.286 41.2189C263.032 41.2189 261.205 43.0463 261.205 45.3005C261.205 47.5548 263.032 49.3822 265.286 49.3822Z" fill="white"/>
<path d="M426.581 170.362C426.581 170.534 418.099 170.659 407.632 170.659C397.166 170.659 388.683 170.534 388.683 170.362C388.683 170.191 397.166 170.066 407.632 170.066C418.099 170.066 426.581 170.203 426.581 170.362Z" fill="#263238"/>
<path d="M478.902 170.362C478.902 170.534 469.61 170.659 458.152 170.659C446.693 170.659 437.401 170.534 437.401 170.362C437.401 170.191 446.693 170.066 458.152 170.066C469.61 170.066 478.902 170.203 478.902 170.362Z" fill="#263238"/>
<path d="M477.101 188.494C477.101 188.654 457.388 188.79 433.08 188.79C408.772 188.79 389.048 188.654 389.048 188.494C389.048 188.334 408.761 188.198 433.08 188.198C457.399 188.198 477.101 188.323 477.101 188.494Z" fill="#263238"/>
<path d="M478.902 205.448C478.902 205.619 458.95 205.744 434.334 205.744C409.719 205.744 389.766 205.619 389.766 205.448C389.766 205.277 409.719 205.151 434.334 205.151C458.95 205.151 478.902 205.288 478.902 205.448Z" fill="#263238"/>
<path d="M426.251 223.861C426.251 224.021 418.167 224.157 408.214 224.157C398.26 224.157 390.165 224.021 390.165 223.861C390.165 223.701 398.237 223.564 408.214 223.564C418.19 223.564 426.251 223.69 426.251 223.861Z" fill="#263238"/>
<path d="M473.486 223.496C473.486 223.656 464.605 223.793 453.648 223.793C442.691 223.793 433.798 223.656 433.798 223.496C433.798 223.337 442.68 223.2 453.648 223.2C464.616 223.2 473.486 223.337 473.486 223.496Z" fill="#263238"/>
<path d="M473.486 242.263C473.486 242.422 454.743 242.559 431.632 242.559C408.522 242.559 389.766 242.422 389.766 242.263C389.766 242.103 408.51 241.966 431.632 241.966C454.754 241.966 473.486 242.092 473.486 242.263Z" fill="#263238"/>
<path d="M314.711 277.265C314.711 277.424 306.879 277.561 297.21 277.561C287.542 277.561 279.709 277.424 279.709 277.265C279.709 277.105 287.542 276.968 297.21 276.968C306.879 276.968 314.711 277.105 314.711 277.265Z" fill="#263238"/>
<path d="M367.397 278.348C367.397 278.508 358.344 278.644 347.194 278.644C336.043 278.644 326.979 278.508 326.979 278.348C326.979 278.188 336.032 278.052 347.194 278.052C358.356 278.052 367.397 278.143 367.397 278.348Z" fill="#263238"/>
<path d="M368.48 295.667C368.48 295.838 348.847 295.963 324.642 295.963C300.437 295.963 280.792 295.838 280.792 295.667C280.792 295.496 300.414 295.37 324.642 295.37C348.87 295.37 368.48 295.507 368.48 295.667Z" fill="#263238"/>
<path d="M373.896 313.35C373.896 313.51 352.723 313.647 326.626 313.647C300.528 313.647 279.344 313.51 279.344 313.35C279.344 313.19 300.505 313.054 326.626 313.054C352.746 313.054 373.896 313.19 373.896 313.35Z" fill="#263238"/>
<path d="M449.316 258.498C449.316 258.658 435.896 258.795 419.364 258.795C402.832 258.795 389.413 258.658 389.413 258.498C389.413 258.339 402.821 258.202 419.364 258.202C435.908 258.202 449.316 258.339 449.316 258.498Z" fill="#263238"/>
<path d="M478.902 258.498C472.413 258.893 465.906 258.893 459.417 258.498C465.906 258.103 472.413 258.103 478.902 258.498Z" fill="#263238"/>
<path d="M474.569 277.983C474.569 278.154 456.156 278.28 433.433 278.28C410.711 278.28 392.297 278.154 392.297 277.983C392.297 277.812 410.711 277.687 433.433 277.687C456.156 277.687 474.569 277.823 474.569 277.983Z" fill="#263238"/>
<path d="M429.831 296.031C429.831 296.191 420.778 296.328 409.616 296.328C398.454 296.328 389.413 296.191 389.413 296.031C389.413 295.872 398.454 295.735 409.616 295.735C420.778 295.735 429.831 295.86 429.831 296.031Z" fill="#263238"/>
<path d="M479.62 314.433C479.62 314.593 459.827 314.73 435.417 314.73C411.007 314.73 391.214 314.593 391.214 314.433C391.214 314.274 411.007 314.137 435.417 314.137C459.827 314.137 479.62 314.274 479.62 314.433Z" fill="#263238"/>
<path d="M483.257 296.385C483.257 296.556 473.566 296.681 461.595 296.681C449.624 296.681 439.932 296.556 439.932 296.385C439.932 296.214 449.624 296.088 461.595 296.088C473.566 296.088 483.257 296.225 483.257 296.385Z" fill="#263238"/>
<path d="M589.29 169.727C589.29 169.887 568.688 170.024 543.285 170.024C517.883 170.024 497.27 169.887 497.27 169.727C497.27 169.568 517.872 169.431 543.285 169.431C568.699 169.431 589.29 169.568 589.29 169.727Z" fill="#263238"/>
<path d="M516.435 187.046C510.307 187.441 504.161 187.441 498.033 187.046C504.161 186.651 510.307 186.651 516.435 187.046V187.046Z" fill="#263238"/>
<path d="M589.29 187.411C589.29 187.57 574.833 187.707 557.001 187.707C539.169 187.707 524.701 187.57 524.701 187.411C524.701 187.251 539.158 187.114 557.001 187.114C574.844 187.114 589.29 187.251 589.29 187.411Z" fill="#263238"/>
<path d="M584.638 204.73C584.638 204.901 565.814 205.026 542.601 205.026C519.388 205.026 500.553 204.901 500.553 204.73C500.553 204.559 519.377 204.433 542.601 204.433C565.826 204.433 584.638 204.57 584.638 204.73Z" fill="#263238"/>
<path d="M587.523 222.048C587.523 222.219 568.14 222.345 544.198 222.345C520.255 222.345 500.873 222.219 500.873 222.048C500.873 221.877 520.255 221.752 544.198 221.752C568.14 221.752 587.523 221.889 587.523 222.048Z" fill="#263238"/>
<path d="M540.971 240.518C540.971 240.678 531.918 240.815 520.768 240.815C509.617 240.815 500.553 240.678 500.553 240.518C500.553 240.359 509.606 240.222 520.768 240.222C531.929 240.222 540.971 240.29 540.971 240.518Z" fill="#263238"/>
<path d="M587.523 240.815C587.523 240.986 579.439 241.111 569.474 241.111C559.509 241.111 551.437 240.986 551.437 240.815C551.437 240.644 559.509 240.518 569.474 240.518C579.439 240.518 587.523 240.655 587.523 240.815Z" fill="#263238"/>
<path d="M598.114 261.588C598.114 261.679 596.701 260.881 594.01 260.026C590.199 258.857 586.174 258.561 582.232 259.16C579.523 259.568 576.897 260.411 574.457 261.656C571.684 263.151 569.116 264.998 566.818 267.152C564.309 269.364 561.824 271.872 558.951 274.186C556.032 276.694 552.611 278.548 548.918 279.625C547.005 280.117 545.015 280.237 543.057 279.978C541.176 279.691 539.347 279.126 537.63 278.302C534.49 276.672 531.444 274.863 528.509 272.887C525.889 271.149 523 269.855 519.958 269.056C517.296 268.414 514.547 268.202 511.818 268.429C507.845 268.779 504.004 270.031 500.587 272.089C498.182 273.559 497.042 274.665 496.973 274.597C497.219 274.3 497.494 274.029 497.794 273.787C498.606 273.052 499.479 272.388 500.405 271.804C503.292 269.938 506.526 268.673 509.913 268.086C513.3 267.498 516.771 267.599 520.118 268.383C523.25 269.168 526.228 270.471 528.931 272.237C531.839 274.176 534.854 275.95 537.961 277.55C541.265 279.246 545.071 279.692 548.678 278.804C552.247 277.762 555.554 275.974 558.381 273.559C561.208 271.279 563.705 268.794 566.248 266.582C568.62 264.398 571.269 262.535 574.126 261.041C577.207 259.515 580.559 258.615 583.989 258.392C587.42 258.168 590.86 258.627 594.113 259.741C595.153 260.093 596.163 260.528 597.134 261.041C597.48 261.186 597.809 261.37 598.114 261.588Z" fill="#F3A84E"/>
<path d="M527.369 281.176H516.504V310.557H527.369V281.176Z" fill="#F3A84E"/>
<path d="M573.465 281.176H562.599V310.557H573.465V281.176Z" fill="#F3A84E"/>
<path d="M588.822 263.925H577.957V310.557H588.822V263.925Z" fill="#F3A84E"/>
<path d="M513.311 301.299H502.446V311.184H513.311V301.299Z" fill="#F3A84E"/>
<path d="M542.738 294.447H531.873V310.557H542.738V294.447Z" fill="#F3A84E"/>
<path d="M558.096 290.741H547.23V310.545H558.096V290.741Z" fill="#F3A84E"/>
<path d="M372.812 169.362H281.146V258.054H372.812V169.362Z" fill="#455A64"/>
<g opacity="0.3">
<path opacity="0.3" d="M288.249 250.472L313.605 204.832L334.356 233.997L346.954 218.502L365.709 250.472H288.249Z" fill="black"/>
</g>
<g opacity="0.3">
<path opacity="0.3" d="M341.425 191.116C346.806 198.185 338.825 206.166 331.756 200.785C326.386 193.773 334.367 185.792 341.425 191.116Z" fill="black"/>
</g>
<g opacity="0.3">
<path opacity="0.3" d="M365.709 250.711C365.7 250.59 365.7 250.468 365.709 250.346C365.709 250.084 365.709 249.742 365.709 249.32C365.709 248.374 365.709 247.04 365.709 245.33C365.709 241.807 365.709 236.722 365.618 230.257C365.618 217.305 365.504 198.858 365.424 176.671L365.801 177.036L288.351 177.104C288.249 177.195 289.172 176.283 288.785 176.682V181.699C288.785 183.375 288.785 185.039 288.785 186.704V196.578C288.785 203.099 288.785 209.469 288.785 215.686C288.785 228.114 288.785 239.857 288.785 250.654L288.397 250.278L344.4 250.472L360.203 250.574H364.387H365.47H365.858C365.744 250.586 365.629 250.586 365.516 250.574H364.478H360.362L344.651 250.677L288.397 250.871H288.021V250.483C288.021 239.686 288.021 227.943 288.021 215.515C288.021 209.298 288.021 202.928 288.021 196.407V176.739C287.633 177.115 288.545 176.192 288.465 176.283L365.915 176.352H366.291V176.671C366.211 198.915 366.143 217.442 366.097 230.451C366.097 236.881 366.017 241.932 365.994 245.432C365.994 247.12 365.994 248.431 365.994 249.354C365.994 249.765 365.994 250.095 365.994 250.346C365.919 250.482 365.823 250.605 365.709 250.711V250.711Z" fill="black"/>
</g>
<path d="M374.044 331.98C374.044 332.14 352.963 332.276 326.979 332.276C300.995 332.276 279.926 332.14 279.926 331.98C279.926 331.82 300.984 331.683 326.979 331.683C352.974 331.683 374.044 331.809 374.044 331.98Z" fill="#E0E0E0"/>
<path d="M483.941 331.364C483.941 331.535 463.67 331.661 438.667 331.661C413.664 331.661 393.369 331.535 393.369 331.364C393.369 331.193 413.641 331.068 438.667 331.068C463.693 331.068 483.941 331.205 483.941 331.364Z" fill="#E0E0E0"/>
<path d="M596.017 329.643C596.017 329.814 575.871 329.939 551.016 329.939C526.161 329.939 506.015 329.814 506.015 329.643C506.015 329.472 526.161 329.346 551.016 329.346C575.871 329.346 596.017 329.449 596.017 329.643Z" fill="#E0E0E0"/>
<path d="M374.044 347.235C374.044 347.406 352.963 347.531 326.979 347.531C300.995 347.531 279.926 347.406 279.926 347.235C279.926 347.064 300.984 346.938 326.979 346.938C352.974 346.938 374.044 347.075 374.044 347.235Z" fill="#E0E0E0"/>
<path d="M483.941 346.631C483.941 346.79 463.67 346.927 438.667 346.927C413.664 346.927 393.369 346.79 393.369 346.631C393.369 346.471 413.641 346.334 438.667 346.334C463.693 346.334 483.941 346.46 483.941 346.631Z" fill="#E0E0E0"/>
<path d="M596.016 344.909C596.016 345.069 575.87 345.205 551.015 345.205C526.16 345.205 506.06 345.069 506.06 344.909C506.06 344.749 526.206 344.613 551.061 344.613C575.916 344.613 596.016 344.749 596.016 344.909Z" fill="#E0E0E0"/>
<path d="M518.203 360.453H370.339C353.356 360.453 339.589 374.217 339.589 391.196C339.589 408.176 353.356 421.94 370.339 421.94H518.203C535.185 421.94 548.952 408.176 548.952 391.196C548.952 374.217 535.185 360.453 518.203 360.453Z" fill="#F3A84E"/>
<path d="M509.617 421.507C510.646 423.418 511.319 425.5 511.601 427.652H515.284L530.744 427.39L530.63 427.664C530.63 427.664 533.15 415.806 533.606 412.283C533.993 409.376 535.783 402.421 533.606 399.354C533.206 398.819 532.65 398.423 532.015 398.218C531.379 398.014 530.696 398.012 530.06 398.214C529.614 398.341 529.213 398.59 528.901 398.932C528.589 399.275 528.378 399.697 528.293 400.152C528.293 400.152 528.11 396.048 525.157 395.979C522.204 395.911 522.102 398.26 522.102 398.26C522.102 398.26 521.292 393.562 518.009 393.608C517.38 393.671 516.784 393.923 516.3 394.33C515.816 394.736 515.466 395.279 515.295 395.888V387.018C515.297 386.149 514.968 385.312 514.375 384.676C513.782 384.041 512.97 383.655 512.103 383.597C511.662 383.584 511.223 383.658 510.812 383.816C510.401 383.973 510.025 384.212 509.706 384.516C509.388 384.821 509.133 385.186 508.957 385.59C508.782 385.994 508.688 386.429 508.682 386.87L508.34 407.392L503.324 400.962C502.012 399.297 498.888 400.129 498.489 401.555C498.489 401.555 497.589 403.447 499.447 406.218C500.895 408.304 509.617 421.507 509.617 421.507Z" fill="#EBEBEB"/>
<path d="M509.617 421.507C509.528 421.401 509.444 421.291 509.367 421.176L508.694 420.196L506.117 416.353L502.058 410.265L499.516 406.457C499.011 405.766 498.626 404.995 498.376 404.177C498.085 403.307 498.085 402.367 498.376 401.498V401.498C498.587 400.966 498.995 400.537 499.516 400.3C500.016 400.05 500.564 399.91 501.123 399.89C501.709 399.863 502.289 400.001 502.799 400.289C502.927 400.363 503.049 400.447 503.164 400.54L503.483 400.87L504.008 401.555L508.489 407.255L508.226 407.346C508.295 401.589 508.363 395.272 508.443 388.546V387.28C508.429 386.845 508.46 386.409 508.534 385.98C508.716 385.194 509.166 384.495 509.806 384.002C510.446 383.51 511.237 383.255 512.044 383.28C512.851 383.306 513.624 383.61 514.231 384.142C514.839 384.674 515.243 385.4 515.375 386.197C515.437 386.65 515.46 387.108 515.444 387.565V395.751H515.09C515.335 394.929 515.881 394.229 516.618 393.79C516.927 393.612 517.261 393.481 517.61 393.403C517.794 393.368 517.984 393.368 518.168 393.403C518.345 393.409 518.521 393.431 518.693 393.471C519.396 393.62 520.034 393.987 520.517 394.52C521.414 395.566 522.013 396.834 522.25 398.191H521.897C521.939 397.736 522.102 397.301 522.368 396.93C522.635 396.56 522.995 396.267 523.413 396.082C523.823 395.915 524.259 395.818 524.701 395.797C524.917 395.768 525.136 395.768 525.351 395.797H525.682L526.001 395.888C526.411 396.041 526.784 396.277 527.098 396.581C527.412 396.885 527.66 397.251 527.825 397.655C528.173 398.421 528.377 399.244 528.43 400.084H528.088C528.177 399.64 528.376 399.226 528.667 398.879C528.958 398.533 529.331 398.265 529.752 398.1C530.575 397.767 531.495 397.767 532.317 398.1C532.719 398.276 533.083 398.528 533.389 398.841C533.672 399.16 533.91 399.517 534.096 399.901C534.431 400.657 534.642 401.462 534.723 402.284C534.832 405.403 534.537 408.522 533.845 411.565C533.435 414.529 532.842 417.345 532.317 420.025L530.733 427.652L530.482 427.572L530.596 427.299L530.721 427.481L515.272 427.709L515.352 427.618V427.698H511.521V427.629C511.314 426.062 510.9 424.528 510.29 423.069C510.085 422.556 509.902 422.18 509.777 421.929C509.712 421.803 509.655 421.674 509.606 421.541C509.889 422.022 510.14 422.521 510.358 423.035C511.002 424.516 511.443 426.076 511.67 427.675L511.59 427.607H515.272L515.193 427.698V427.618H515.272L530.733 427.299H530.927L530.847 427.481C530.847 427.572 530.778 427.652 530.744 427.755L530.493 427.675C530.984 425.281 531.497 422.727 532.044 420.048C532.591 417.368 533.184 414.563 533.549 411.599C534.222 408.585 534.509 405.497 534.404 402.41C534.321 401.624 534.122 400.856 533.811 400.129C533.636 399.78 533.418 399.455 533.161 399.16C532.881 398.885 532.553 398.665 532.192 398.51C531.462 398.209 530.642 398.209 529.912 398.51C529.543 398.656 529.218 398.893 528.965 399.197C528.712 399.502 528.539 399.866 528.464 400.255L528.213 401.395L528.122 400.175C528.069 399.386 527.872 398.613 527.54 397.895C527.395 397.534 527.176 397.207 526.898 396.936C526.619 396.665 526.286 396.456 525.921 396.321C525.167 396.114 524.365 396.162 523.641 396.458C523.281 396.613 522.968 396.861 522.738 397.178C522.507 397.496 522.366 397.869 522.33 398.26L522.216 399.4L521.976 398.26C521.751 396.971 521.184 395.766 520.335 394.771C519.927 394.284 519.361 393.956 518.736 393.843C518.111 393.731 517.466 393.841 516.914 394.155C516.254 394.553 515.766 395.183 515.546 395.922L515.204 397.005V387.577C515.22 387.142 515.201 386.708 515.147 386.277C515.068 385.871 514.914 385.484 514.691 385.137C514.477 384.78 514.193 384.47 513.856 384.226C513.519 383.982 513.136 383.808 512.73 383.716C512.325 383.623 511.904 383.613 511.495 383.687C511.085 383.761 510.695 383.916 510.347 384.145C509.656 384.596 509.169 385.3 508.99 386.106C508.919 386.512 508.888 386.925 508.899 387.337C508.899 387.759 508.899 388.181 508.899 388.603C508.808 395.318 508.717 401.634 508.637 407.403V407.825L508.363 407.495C506.813 405.499 505.33 403.573 503.905 401.794C503.605 401.323 503.218 400.913 502.765 400.585C502.3 400.324 501.771 400.197 501.237 400.221C500.713 400.238 500.2 400.371 499.732 400.608C499.283 400.808 498.931 401.177 498.752 401.634V401.634C498.484 402.449 498.484 403.328 498.752 404.143C498.989 404.934 499.355 405.682 499.835 406.355L502.343 410.185L506.368 416.308C507.451 417.984 508.295 419.284 508.888 420.173L509.526 421.188L509.617 421.507Z" fill="#263238"/>
<path d="M530.949 427.413H511.59C510.123 427.413 508.933 428.602 508.933 430.069V430.263C508.933 431.73 510.123 432.92 511.59 432.92H530.949C532.416 432.92 533.606 431.73 533.606 430.263V430.069C533.606 428.602 532.416 427.413 530.949 427.413Z" fill="#EBEBEB"/>
<path d="M530.949 432.931C530.949 432.931 531.143 432.931 531.496 432.828C532.017 432.71 532.488 432.431 532.842 432.03C533.094 431.742 533.285 431.404 533.4 431.038C533.52 430.604 533.547 430.15 533.48 429.704C533.393 429.163 533.134 428.664 532.742 428.28C532.35 427.896 531.846 427.648 531.303 427.572H511.601C511.268 427.571 510.939 427.636 510.632 427.765C510.325 427.893 510.047 428.083 509.815 428.321C509.583 428.559 509.402 428.842 509.282 429.152C509.161 429.463 509.105 429.794 509.116 430.126C509.091 430.557 509.181 430.986 509.378 431.369C509.57 431.742 509.852 432.061 510.198 432.298C510.545 432.535 510.944 432.682 511.362 432.726C512.205 432.726 513.083 432.726 513.904 432.726H522.774L528.749 432.783H530.379H530.949C530.759 432.798 530.569 432.798 530.379 432.783H528.749L522.774 432.84H513.904C513.06 432.84 512.228 432.84 511.327 432.84C510.574 432.773 509.876 432.418 509.378 431.849C508.881 431.279 508.623 430.539 508.658 429.784C508.694 429.029 509.02 428.316 509.568 427.796C510.116 427.275 510.845 426.987 511.601 426.991C519.308 426.991 526.263 426.991 531.337 427.071C531.928 427.156 532.476 427.432 532.897 427.855C533.319 428.279 533.591 428.828 533.674 429.419C533.741 429.896 533.706 430.382 533.571 430.845C533.438 431.227 533.224 431.577 532.944 431.871C532.563 432.276 532.065 432.551 531.519 432.657C531.345 432.779 531.153 432.871 530.949 432.931V432.931Z" fill="#263238"/>
<path d="M515.181 403.379C514.939 400.724 514.939 398.053 515.181 395.398C515.424 398.053 515.424 400.724 515.181 403.379V403.379Z" fill="#263238"/>
<path d="M522.022 402.831C521.779 401.256 521.779 399.653 522.022 398.077C522.25 399.654 522.25 401.255 522.022 402.831V402.831Z" fill="#263238"/>
<path d="M528.281 404.827C528.053 403.254 528.053 401.657 528.281 400.084C528.525 401.655 528.525 403.255 528.281 404.827V404.827Z" fill="#263238"/>
<path d="M507.2 383.153C505.895 382.689 504.632 382.113 503.426 381.431C502.167 380.853 500.958 380.17 499.812 379.39C501.118 379.854 502.38 380.43 503.586 381.112C504.846 381.69 506.055 382.373 507.2 383.153V383.153Z" fill="#263238"/>
<path d="M510.621 381.271C510.181 379.55 509.85 377.802 509.629 376.038C509.299 374.294 509.082 372.531 508.979 370.759C509.434 372.475 509.769 374.22 509.982 375.981C510.319 377.727 510.533 379.495 510.621 381.271V381.271Z" fill="#263238"/>
<path d="M514.748 381.75C515.406 380.477 516.169 379.26 517.028 378.113C517.807 376.903 518.684 375.759 519.651 374.693C518.992 375.969 518.229 377.19 517.37 378.341C516.59 379.547 515.713 380.687 514.748 381.75V381.75Z" fill="#263238"/>
<path d="M93.1147 486.282H18.6069C17.7451 486.282 16.9186 485.939 16.3093 485.33C15.6999 484.721 15.3575 483.894 15.3575 483.032V432.08C15.3575 431.3 15.6674 430.551 16.2191 430C16.7707 429.448 17.5189 429.138 18.2991 429.138H93.1147C94.9864 429.138 96.7815 429.882 98.105 431.205C99.4286 432.529 100.172 434.324 100.172 436.196V479.224C100.172 481.096 99.4286 482.891 98.105 484.215C96.7815 485.538 94.9864 486.282 93.1147 486.282V486.282Z" fill="#263238"/>
<g opacity="0.4">
<path opacity="0.4" d="M93.1147 486.282H18.6069C17.7451 486.282 16.9186 485.939 16.3093 485.33C15.6999 484.721 15.3575 483.894 15.3575 483.032V432.08C15.3575 431.3 15.6674 430.551 16.2191 430C16.7707 429.448 17.5189 429.138 18.2991 429.138H93.1147C94.9864 429.138 96.7815 429.882 98.105 431.205C99.4286 432.529 100.172 434.324 100.172 436.196V479.224C100.172 481.096 99.4286 482.891 98.105 484.215C96.7815 485.538 94.9864 486.282 93.1147 486.282V486.282Z" fill="black"/>
</g>
<path d="M109.476 486.282H28.0131V429.127H107.948C108.581 429.127 109.208 429.251 109.794 429.494C110.379 429.736 110.91 430.091 111.358 430.539C111.806 430.987 112.161 431.519 112.404 432.104C112.646 432.689 112.771 433.316 112.771 433.95L112.771 482.975C112.772 483.409 112.688 483.839 112.523 484.24C112.358 484.641 112.116 485.005 111.81 485.313C111.504 485.62 111.14 485.863 110.739 486.03C110.339 486.196 109.909 486.282 109.476 486.282V486.282Z" fill="#263238"/>
<path d="M27.9102 486.567C27.762 486.567 27.6479 473.888 27.6479 458.257C27.6479 442.626 27.762 429.936 27.9102 429.936C28.0584 429.936 28.1838 442.615 28.1838 458.257C28.1838 473.9 28.0698 486.567 27.9102 486.567Z" fill="#263238"/>
<path d="M48.4102 428.42C48.4102 428.42 48.4786 428.294 48.6382 428.089C48.7978 427.884 49.0486 427.576 49.4021 427.223C50.3871 426.197 51.476 425.276 52.6515 424.475C56.5471 421.763 61.2104 420.372 65.9554 420.507C70.7004 420.643 75.2768 422.297 79.0114 425.227C80.138 426.093 81.1733 427.071 82.1011 428.146C82.4318 428.522 82.6484 428.853 82.808 429.058C82.9676 429.264 83.036 429.389 83.0246 429.4C81.7156 428.002 80.2974 426.709 78.7833 425.535C75.0662 422.752 70.5792 421.187 65.9375 421.054C61.2958 420.922 56.7267 422.228 52.8567 424.794C51.2773 425.878 49.7901 427.091 48.4102 428.42V428.42Z" fill="#263238"/>
<path d="M27.3975 437.301C27.4344 437.4 27.4575 437.504 27.4659 437.609C27.4659 437.837 27.5571 438.134 27.6255 438.51C27.6939 438.886 27.7509 439.399 27.8649 439.969C27.9789 440.539 28.15 441.212 28.3096 441.942C29.3697 446.104 31.0903 450.068 33.406 453.685C36.8427 459.058 41.4743 463.565 46.9394 466.854C53.6946 470.79 61.4136 472.764 69.229 472.554C77.0436 472.421 84.6863 470.239 91.3932 466.227C96.8285 462.893 101.552 458.519 105.291 453.355C107.806 449.87 109.878 446.086 111.46 442.09C111.995 440.665 112.394 439.548 112.6 438.784L112.896 437.917C112.924 437.815 112.962 437.715 113.01 437.621C113.004 437.726 112.981 437.83 112.942 437.929L112.714 438.818C112.509 439.593 112.144 440.722 111.574 442.158C110.061 446.206 108.025 450.039 105.519 453.56C101.789 458.805 97.0437 463.248 91.5642 466.626C84.8009 470.731 77.0712 472.974 69.1606 473.124C61.2444 473.334 53.4291 471.311 46.6087 467.287C41.0953 463.939 36.4382 459.352 33.0069 453.89C30.6992 450.226 29.0156 446.203 28.0246 441.987L27.7167 440.004C27.6141 439.422 27.5685 438.92 27.5115 438.521C27.4545 438.122 27.4431 437.849 27.4089 437.621C27.395 437.515 27.3912 437.408 27.3975 437.301V437.301Z" fill="#455A64"/>
<path d="M782.919 268.527C771.518 274.422 762.795 284.569 756.525 295.754C750.254 306.939 746.264 319.195 742.193 331.372L738.647 394.182C751.884 371.653 762.522 345.156 765.395 319.184L756.582 318.397C762.488 317.496 767.447 313.209 770.605 308.136C773.764 303.062 775.383 297.202 776.967 291.433L766.216 293.029C774.724 287.31 780.705 278.537 782.919 268.527Z" fill="#455A64"/>
<g opacity="0.3">
<path opacity="0.3" d="M782.919 268.527C771.518 274.422 762.795 284.569 756.525 295.754C750.254 306.939 746.264 319.195 742.193 331.372L738.647 394.182C751.884 371.653 762.522 345.156 765.395 319.184L756.582 318.397C762.488 317.496 767.447 313.209 770.605 308.136C773.764 303.062 775.383 297.202 776.967 291.433L766.216 293.029C774.724 287.31 780.705 278.537 782.919 268.527Z" fill="black"/>
</g>
<path d="M736.732 408.901C736.732 408.901 707.978 374.492 708.309 341.633H719.926C719.926 341.633 707.305 333.344 708.309 328.692C709.312 324.041 709.631 306.46 709.631 306.46L720.257 309.116C720.257 309.116 712.276 305.137 711.296 298.855C710.315 292.573 713.576 263.351 713.576 263.351C713.576 263.351 726.562 276.964 730.541 290.863C734.52 304.761 744.975 321.065 741.942 363.535C738.91 406.005 736.732 408.901 736.732 408.901Z" fill="#455A64"/>
<path d="M751.303 412.15C751.303 412.15 782.451 391.4 789.372 364.914L780.034 362.372C780.034 362.372 791.994 358.461 792.234 354.494C792.473 350.526 796.019 336.32 796.019 336.32L786.898 336.137C786.898 336.137 794.172 334.678 796.35 329.821C798.527 324.964 802.244 300.771 802.244 300.771C802.244 300.771 788.813 308.888 782.611 319.229C776.409 329.57 764.369 340.356 757.528 375.176C750.687 409.995 751.303 412.15 751.303 412.15Z" fill="#455A64"/>
<path d="M721.465 293.325C721.514 293.444 721.552 293.566 721.579 293.69C721.636 293.953 721.728 294.306 721.83 294.739L722.742 298.821C723.153 300.6 723.609 302.777 724.122 305.308C724.635 307.839 725.262 310.712 725.809 313.905C727.041 320.29 728.352 327.917 729.686 336.4C731.02 344.882 732.274 354.254 733.425 364.105C734.577 373.956 735.432 383.362 736.105 391.936C736.777 400.509 737.245 408.228 737.461 414.738C737.621 417.988 737.701 420.929 737.781 423.506C737.86 426.083 737.906 428.306 737.917 430.13C737.929 431.954 737.917 433.311 737.917 434.314C737.917 434.759 737.917 435.124 737.917 435.398C737.935 435.522 737.935 435.649 737.917 435.774C737.91 435.649 737.91 435.523 737.917 435.398C737.917 435.124 737.917 434.759 737.86 434.314C737.86 433.323 737.781 431.92 737.712 430.13C737.644 428.34 737.587 426.094 737.473 423.517C737.359 420.941 737.256 418.011 737.074 414.761C736.766 408.274 736.241 400.555 735.58 391.958C734.919 383.362 733.984 373.99 732.867 364.151C731.749 354.311 730.438 344.951 729.173 336.468C727.907 327.986 726.607 320.347 725.422 313.962C724.863 310.758 724.281 307.885 723.814 305.342C723.347 302.8 722.913 300.634 722.548 298.855C722.184 297.076 721.933 295.72 721.739 294.751C721.659 294.306 721.591 293.953 721.545 293.679C721.5 293.405 721.465 293.325 721.465 293.325Z" fill="#263238"/>
<path d="M732.741 429.97C732.741 429.97 706.427 400.122 698.264 382.085L704.42 379.451C699.951 380.192 695.379 378.311 691.879 375.347C688.379 372.382 685.859 368.597 683.362 364.812L691.491 363.444C684.027 361.311 677.671 356.387 673.74 349.694C683.328 351.267 691.982 356.534 699.153 363.113C704.825 368.571 709.978 374.545 714.545 380.956C716.844 384.035 718.845 387.326 720.519 390.784C724.966 399.917 732.753 419.014 732.741 429.97Z" fill="#455A64"/>
<path d="M789.782 318.169C789.76 318.277 789.722 318.381 789.668 318.477L789.269 319.343C788.881 320.141 788.346 321.247 787.673 322.661C786.259 325.523 784.253 329.696 781.847 334.872C777.013 345.213 770.639 359.658 764.346 375.917C758.052 392.175 753.07 407.156 749.684 418.102C747.996 423.552 746.662 427.975 745.773 431.042C745.328 432.547 744.986 433.721 744.724 434.577C744.61 434.941 744.519 435.249 744.439 435.489C744.412 435.595 744.374 435.698 744.325 435.797C744.312 435.687 744.312 435.576 744.325 435.466L744.553 434.542L745.499 430.985C746.32 427.895 747.586 423.449 749.228 417.976C752.511 407.031 757.448 392.015 763.741 375.734C770.035 359.453 776.477 345.042 781.414 334.689C783.876 329.536 785.974 325.386 787.399 322.558C788.129 321.167 788.699 320.073 789.098 319.286C789.292 318.944 789.44 318.671 789.554 318.443C789.624 318.346 789.7 318.255 789.782 318.169V318.169Z" fill="#263238"/>
<path d="M734.976 442.763C734.901 442.589 734.854 442.404 734.839 442.216C734.771 441.794 734.68 441.269 734.577 440.631C734.372 439.263 734.03 437.267 733.54 434.828C733.049 432.388 732.4 429.503 731.533 426.334C730.667 423.164 729.549 419.721 728.215 416.164C726.881 412.606 725.411 409.323 723.985 406.347C722.56 403.371 721.135 400.783 719.881 398.628C718.627 396.473 717.601 394.763 716.814 393.6L715.97 392.232C715.776 391.913 715.685 391.742 715.708 391.73C715.843 391.86 715.962 392.005 716.061 392.164L717.008 393.463C717.829 394.604 718.935 396.291 720.234 398.423C721.534 400.555 722.993 403.155 724.476 406.108C725.958 409.06 727.417 412.39 728.774 415.958C730.131 419.527 731.191 423.004 732.058 426.22C732.924 429.435 733.528 432.331 733.962 434.793C734.395 437.256 734.668 439.251 734.805 440.642L734.953 442.238C734.979 442.412 734.987 442.588 734.976 442.763Z" fill="#263238"/>
<path d="M769.693 435.751H712.105V447.494H769.693V435.751Z" fill="#EE435B"/>
<path d="M717.589 447.494L723.826 487H758.611L764.426 447.494H717.589Z" fill="#EE435B"/>
<path d="M766.159 447.494C766.159 447.654 755.259 447.791 741.828 447.791C728.398 447.791 717.498 447.654 717.498 447.494C717.498 447.335 728.386 447.198 741.828 447.198C755.271 447.198 766.159 447.323 766.159 447.494Z" fill="#263238"/>
<path d="M32.448 368.871L30.829 286.496C30.7306 281.46 31.6365 276.456 33.4939 271.774C35.3513 267.093 38.123 262.828 41.647 259.23C45.171 255.632 49.3768 252.772 54.0185 250.817C58.6602 248.862 63.645 247.852 68.6815 247.845V247.845C78.7121 247.83 88.3399 251.791 95.456 258.86C102.572 265.929 106.597 275.531 106.648 285.561L107.07 368.871L32.448 372.063" fill="#455A64"/>
<path d="M32.4482 382.929H148.537C148.537 375.164 143.303 369.315 135.539 369.315L32.4482 368.871V382.929Z" fill="#455A64"/>
<path d="M128.47 486.282H136.622V382.929H128.47V486.282Z" fill="#455A64"/>
<path d="M41.6488 486.282H49.8008L49.8008 382.929H41.6488L41.6488 486.282Z" fill="#455A64"/>
<path d="M41.9226 369.315C41.9226 369.167 63.5167 369.053 90.1503 369.053C116.784 369.053 138.389 369.167 138.389 369.315C138.389 369.464 116.795 369.589 90.1503 369.589C63.5053 369.589 41.9226 369.464 41.9226 369.315Z" fill="#263238"/>
<path d="M34.4092 382.997C34.4092 382.849 59.7886 382.735 91.0853 382.735C122.382 382.735 147.773 382.849 147.773 382.997C147.773 383.145 122.405 383.271 91.0853 383.271C59.7658 383.271 34.4092 383.122 34.4092 382.997Z" fill="#263238"/>
<path d="M40.6115 262.519C40.7597 262.519 40.8738 286.029 40.8738 315.034C40.8738 344.039 40.7597 367.548 40.6115 367.548C40.4633 367.548 40.3379 344.039 40.3379 315.034C40.3379 286.029 40.4519 262.519 40.6115 262.519Z" fill="#263238"/>
<path d="M110.194 322.638C110.194 322.638 175.523 322.365 180.7 322.638C189.901 323.14 196.08 333.424 197.311 338.748C198.543 344.073 227.092 426.174 227.092 426.174L204.905 440.517L175.147 373.374L160.166 347.322L78.6919 361.562L110.194 322.638Z" fill="#FFBF9D"/>
<path d="M160.599 344.917C160.599 344.917 172.662 344.917 179.172 354.562C183.003 360.263 181.657 370.364 181.737 378.015C181.84 388.435 179.126 469.225 179.126 469.225C171.442 474.687 162.856 475.325 153.473 471.654L146.838 382.222L148.548 368.871L103.991 369.863C103.991 369.863 96.0104 355.041 107.081 343.229C108.495 341.713 160.599 344.917 160.599 344.917Z" fill="#FFBF9D"/>
<path d="M166.209 345.373H166.551L167.531 345.532C168.783 345.8 169.994 346.229 171.134 346.809C172.935 347.737 174.569 348.959 175.968 350.423C177.823 352.367 179.324 354.621 180.403 357.082C181.699 360.067 182.452 363.26 182.627 366.511C182.804 370.222 182.701 373.942 182.319 377.638C181.965 381.538 181.783 385.619 181.635 389.872C181.487 394.125 181.338 398.526 181.19 403.041C180.643 421.066 180.153 437.393 179.799 449.239C179.605 455.133 179.457 459.899 179.343 463.24C179.275 464.87 179.229 466.147 179.195 467.048C179.195 467.458 179.195 467.789 179.138 468.04C179.153 468.153 179.153 468.268 179.138 468.382C179.126 468.268 179.126 468.153 179.138 468.04C179.138 467.789 179.138 467.458 179.138 467.048C179.138 466.136 179.138 464.87 179.138 463.24C179.206 459.899 179.297 455.122 179.411 449.227C179.685 437.404 180.084 421.066 180.654 403.018C180.802 398.514 180.951 394.113 181.099 389.861C181.247 385.608 181.464 381.492 181.829 377.593C182.219 373.924 182.337 370.231 182.182 366.545C182.026 363.339 181.304 360.185 180.05 357.23C179.005 354.8 177.551 352.567 175.752 350.629C174.387 349.168 172.792 347.939 171.032 346.992C169.512 346.218 167.887 345.672 166.209 345.373V345.373Z" fill="#FFBF9D"/>
<path d="M179.104 468.393V470.035C179.104 470.035 207.071 480.935 207.413 486.225L152.117 486.487L152.778 468.085C161.044 471.848 169.652 472.235 179.104 468.393Z" fill="#F3A84E"/>
<path d="M152.139 486.487L152.299 482.063L205.247 483.42C205.247 483.42 207.71 484.48 207.436 486.225L152.139 486.487Z" fill="#E0E0E0"/>
<path d="M226.009 422.753L226.636 424.27C226.636 424.27 256.655 424.11 258.924 428.887L207.618 449.524L201.45 432.171C210.491 432.638 218.643 429.822 226.009 422.753Z" fill="#F3A84E"/>
<path d="M207.618 449.524L206.125 445.351L255.846 427.109C255.846 427.109 258.537 427.189 258.924 428.899L207.618 449.524Z" fill="#E0E0E0"/>
<path d="M228.722 430.575C228.654 430.575 228.392 430.278 228.175 429.651C227.896 428.818 227.83 427.928 227.981 427.063C228.126 426.194 228.478 425.373 229.007 424.669C229.418 424.144 229.771 423.928 229.828 423.973C229.274 424.975 228.852 426.044 228.574 427.154C228.47 428.296 228.52 429.446 228.722 430.575V430.575Z" fill="#263238"/>
<path d="M225.781 431.076C225.256 429.972 225.083 428.733 225.287 427.527C225.491 426.322 226.062 425.208 226.921 424.338C226.507 425.411 226.157 426.508 225.872 427.622C225.772 428.771 225.742 429.924 225.781 431.076V431.076Z" fill="#263238"/>
<path d="M233.18 430.199C232.784 429.866 232.463 429.454 232.239 428.988C232.015 428.522 231.893 428.013 231.88 427.496C231.768 426.993 231.761 426.471 231.861 425.964C231.961 425.458 232.166 424.978 232.462 424.555C232.633 424.612 232.257 425.866 232.462 427.417C232.667 428.967 233.328 430.107 233.18 430.199Z" fill="#263238"/>
<path d="M230.147 424.418C230.147 424.475 229.372 424.099 228.619 423.039C228.195 422.424 227.836 421.767 227.548 421.077C227.377 420.69 227.217 420.291 227.057 419.869C226.956 419.638 226.88 419.397 226.829 419.151C226.799 418.99 226.807 418.825 226.853 418.669C226.898 418.512 226.98 418.369 227.092 418.25C227.219 418.121 227.386 418.039 227.566 418.016C227.746 417.993 227.928 418.031 228.084 418.125C228.322 418.257 228.528 418.44 228.688 418.66C228.96 419.014 229.193 419.396 229.383 419.801C229.712 420.486 229.921 421.222 229.999 421.978C230.132 422.665 230.056 423.376 229.782 424.019C229.691 424.019 229.782 423.232 229.589 422.035C229.452 421.34 229.218 420.669 228.893 420.04C228.707 419.671 228.482 419.323 228.22 419.002C227.981 418.66 227.616 418.467 227.513 418.638C227.411 418.809 227.422 419.208 227.605 419.641L228.049 420.849C228.303 421.52 228.612 422.168 228.973 422.788C229.566 423.859 230.147 424.338 230.147 424.418Z" fill="#263238"/>
<path d="M230.421 424.122C230.421 424.122 230.421 424.247 230.216 424.418L230.102 424.543V424.35C230.018 423.587 230.064 422.816 230.239 422.069C230.37 421.473 230.565 420.892 230.82 420.336C230.966 420.023 231.129 419.719 231.31 419.424C231.409 419.239 231.545 419.076 231.709 418.945C231.813 418.86 231.934 418.8 232.065 418.768C232.195 418.736 232.331 418.735 232.462 418.763C232.63 418.813 232.777 418.917 232.88 419.06C232.983 419.202 233.037 419.374 233.032 419.55C233.023 419.789 232.984 420.026 232.918 420.257C232.818 420.666 232.684 421.066 232.519 421.454C232.226 422.098 231.842 422.697 231.379 423.232C230.581 424.144 229.897 424.486 229.862 424.429C229.828 424.372 230.375 423.905 231.002 422.981C231.391 422.441 231.712 421.855 231.96 421.237C232.099 420.865 232.213 420.484 232.302 420.097C232.416 419.698 232.393 419.287 232.302 419.322C231.983 419.208 231.573 420.063 231.31 420.553C231.047 421.066 230.837 421.605 230.683 422.161C230.48 422.885 230.339 423.624 230.261 424.372L230.113 424.304C230.296 424.144 230.398 424.099 230.421 424.122Z" fill="#263238"/>
<path d="M178.636 476.328C178.556 476.328 178.511 475.907 178.636 475.257C178.829 474.417 179.22 473.635 179.776 472.976C180.349 472.311 181.077 471.798 181.897 471.483C182.524 471.243 182.946 471.243 182.957 471.312C181.961 471.875 181.041 472.565 180.221 473.364C179.565 474.278 179.032 475.275 178.636 476.328V476.328Z" fill="#263238"/>
<path d="M175.866 475.222C175.908 473.982 176.427 472.806 177.314 471.939C178.052 470.945 179.148 470.279 180.369 470.08C179.457 470.791 178.585 471.552 177.758 472.361C177.072 473.277 176.44 474.232 175.866 475.222V475.222Z" fill="#263238"/>
<path d="M182.627 478.346C182.468 477.854 182.413 477.335 182.466 476.821C182.519 476.306 182.679 475.809 182.934 475.359C183.641 473.775 184.907 473.022 184.975 473.159C185.044 473.296 184.109 474.174 183.482 475.61C182.855 477.047 182.798 478.346 182.627 478.346Z" fill="#263238"/>
<path d="M183.048 471.825C182.657 471.243 182.454 470.554 182.467 469.852C182.426 469.09 182.464 468.326 182.581 467.572C182.638 467.15 182.718 466.717 182.798 466.284C182.838 466.036 182.899 465.792 182.98 465.554C183.039 465.401 183.132 465.264 183.253 465.153C183.373 465.042 183.518 464.961 183.676 464.916C183.853 464.875 184.039 464.894 184.204 464.971C184.369 465.047 184.504 465.176 184.588 465.337C184.724 465.574 184.802 465.84 184.816 466.113C184.867 466.56 184.867 467.011 184.816 467.458C184.738 468.214 184.53 468.951 184.2 469.636C183.63 470.776 182.991 471.312 182.946 471.266C182.9 471.221 183.379 470.605 183.824 469.465C184.07 468.805 184.224 468.114 184.28 467.412C184.319 466.999 184.319 466.583 184.28 466.17C184.28 465.759 184.04 465.406 183.869 465.486C183.698 465.565 183.493 465.93 183.413 466.386C183.333 466.842 183.242 467.241 183.162 467.652C183.035 468.356 182.958 469.069 182.934 469.784C182.877 471.061 183.14 471.791 183.048 471.825Z" fill="#263238"/>
<path d="M183.459 471.722C183.459 471.722 183.356 471.802 183.128 471.87H182.957L183.037 471.688C183.369 470.978 183.82 470.33 184.371 469.773C184.801 469.348 185.27 468.967 185.773 468.632C186.064 468.446 186.365 468.274 186.674 468.119C186.856 468.02 187.052 467.951 187.256 467.914C187.389 467.898 187.524 467.912 187.652 467.953C187.78 467.994 187.898 468.063 187.997 468.154C188.113 468.285 188.183 468.451 188.195 468.626C188.208 468.802 188.162 468.976 188.065 469.123C187.94 469.326 187.786 469.51 187.609 469.67C187.311 469.968 186.987 470.239 186.64 470.479C186.055 470.884 185.414 471.199 184.736 471.414C184.135 471.666 183.474 471.742 182.832 471.631C182.832 471.54 183.539 471.46 184.599 471.015C185.211 470.761 185.79 470.432 186.321 470.035C186.632 469.799 186.926 469.54 187.199 469.259C187.506 468.986 187.7 468.621 187.575 468.575C187.358 468.313 186.571 468.826 186.081 469.111C185.595 469.42 185.133 469.767 184.702 470.149C184.157 470.663 183.654 471.22 183.197 471.813L183.105 471.677C183.333 471.677 183.402 471.688 183.459 471.722Z" fill="#263238"/>
<path d="M184.234 283.805L194.211 285.413L200.698 294.386L198.805 301.227L197.665 301.614L197.905 304.179C197.957 304.734 197.844 305.292 197.58 305.783C197.317 306.274 196.914 306.676 196.422 306.939L191.258 297.989L193.39 307.11C192.8 307.247 192.188 307.265 191.591 307.163C190.994 307.061 190.424 306.842 189.912 306.517C187.712 305.377 185.352 295.275 185.352 295.275L181.931 293.12L185.352 304.385C184.964 304.758 184.501 305.045 183.994 305.226C183.487 305.406 182.947 305.477 182.41 305.434C180.506 305.331 176.618 295.115 176.618 295.115L124.674 302.389L124.56 295.674L137.17 274.798L184.234 283.805Z" fill="#FFBF9D"/>
<path d="M71.5205 199.703C68.7523 198.616 66.2988 196.856 64.3817 194.583C62.4647 192.31 61.1446 189.594 60.541 186.682C60.0621 184.22 60.0963 181.654 59.4008 179.26C58.3291 175.84 55.6726 172.864 55.5358 169.261C55.456 166.878 56.5163 164.598 56.6759 162.215C56.8355 159.832 56.2883 157.654 56.2427 155.317C56.2329 152.373 57.0935 149.492 58.7163 147.035C60.3391 144.578 62.6518 142.656 65.3637 141.51L79.7294 135.684L101.871 144.714C101.871 144.714 114.412 156.936 110.844 182.088L71.5205 199.703Z" fill="#EE435B"/>
<path d="M108.461 184.614C108.875 184.066 109.42 183.631 110.045 183.348H109.92C110.035 183.307 110.153 183.277 110.273 183.257C110.484 183.166 110.711 183.119 110.94 183.119C111.17 183.119 111.397 183.166 111.607 183.257V183.257C112.368 183.455 113.027 183.931 113.454 184.591C113.793 185.18 113.964 185.851 113.947 186.53C113.931 187.21 113.729 187.872 113.363 188.445C113.107 188.959 112.701 189.384 112.198 189.662C111.695 189.941 111.119 190.06 110.547 190.005C109.975 189.949 109.433 189.721 108.993 189.351C108.554 188.981 108.237 188.486 108.084 187.931C107.869 187.39 107.79 186.804 107.856 186.225C107.922 185.646 108.129 185.093 108.461 184.614V184.614Z" fill="#455A64"/>
<path d="M108.153 161.594C106.694 153.556 100.172 144.276 92.1913 146.077L67.781 155.426C66.6118 155.687 65.5836 156.378 64.9012 157.363C64.2187 158.347 63.9321 159.553 64.0984 160.739L71.3382 214.565C71.7976 217.966 73.4166 221.104 75.9217 223.449C78.4269 225.794 81.6647 227.203 85.0883 227.437V227.437C87.2176 227.582 89.3531 227.267 91.3504 226.515C93.3476 225.762 95.16 224.59 96.6648 223.076C98.1696 221.563 99.3317 219.744 100.073 217.742C100.813 215.741 101.116 213.604 100.959 211.475C100.674 207.758 100.48 204.976 100.48 204.988C100.48 204.999 110.616 202.046 111.152 188.308C111.471 181.467 109.829 170.51 108.153 161.594Z" fill="#FFBF9D"/>
<path d="M105.656 173.452C105.715 173.903 105.593 174.36 105.318 174.722C105.043 175.085 104.636 175.325 104.185 175.39C103.968 175.434 103.744 175.435 103.526 175.39C103.309 175.346 103.102 175.259 102.919 175.133C102.736 175.008 102.581 174.847 102.461 174.66C102.342 174.473 102.261 174.263 102.224 174.045C102.166 173.595 102.285 173.14 102.558 172.777C102.831 172.415 103.235 172.174 103.684 172.106C103.902 172.062 104.127 172.062 104.345 172.106C104.563 172.15 104.77 172.237 104.954 172.362C105.138 172.488 105.295 172.649 105.416 172.836C105.536 173.023 105.618 173.232 105.656 173.452V173.452Z" fill="#263238"/>
<path d="M106.488 167.591C106.306 167.842 104.881 167.033 103.068 167.261C101.255 167.489 99.9554 168.572 99.7274 168.401C99.4993 168.23 99.7844 167.876 100.32 167.375C101.063 166.73 101.987 166.332 102.965 166.235C103.935 166.112 104.918 166.304 105.77 166.782C106.34 167.09 106.591 167.512 106.488 167.591Z" fill="#263238"/>
<path d="M89.1356 175.128C89.1944 175.578 89.0745 176.032 88.8016 176.395C88.5288 176.757 88.1247 176.998 87.6762 177.066C87.4581 177.11 87.2332 177.111 87.015 177.067C86.7968 177.023 86.5896 176.936 86.4057 176.81C86.2218 176.685 86.0649 176.524 85.9443 176.336C85.8238 176.149 85.742 175.94 85.7037 175.721C85.6479 175.271 85.769 174.818 86.0413 174.456C86.3136 174.095 86.7159 173.853 87.1631 173.782C87.3814 173.736 87.6067 173.735 87.8255 173.778C88.0444 173.821 88.2522 173.908 88.4365 174.034C88.6207 174.16 88.7777 174.321 88.8978 174.509C89.018 174.697 89.0988 174.908 89.1356 175.128V175.128Z" fill="#263238"/>
<path d="M88.2464 170.111C88.0525 170.362 86.6274 169.541 84.7689 169.769C82.9105 169.997 81.6564 171.092 81.4284 170.909C81.2003 170.727 81.4284 170.385 82.0326 169.883C82.7737 169.243 83.6927 168.846 84.6663 168.743C85.6354 168.63 86.6157 168.821 87.4711 169.29C88.0867 169.609 88.3376 169.997 88.2464 170.111Z" fill="#263238"/>
<path d="M96.626 183.109C97.5734 182.688 98.569 182.385 99.5904 182.208C100.058 182.105 100.491 181.957 100.537 181.615C100.519 181.121 100.352 180.644 100.058 180.247L98.2222 176.826C95.6569 171.912 93.7415 167.842 93.9467 167.705C94.1519 167.569 96.3752 171.513 98.9405 176.427C99.5562 177.647 100.16 178.799 100.719 179.916C101.085 180.455 101.25 181.104 101.187 181.752C101.136 181.926 101.047 182.087 100.927 182.223C100.807 182.359 100.658 182.467 100.491 182.539C100.234 182.637 99.966 182.706 99.693 182.744C98.6896 182.991 97.6595 183.114 96.626 183.109V183.109Z" fill="#263238"/>
<path d="M100.525 204.976C94.1982 205.822 87.7607 204.894 81.9297 202.297C81.9297 202.297 87.4023 211.042 100.753 208.18L100.525 204.976Z" fill="#FFBF9D"/>
<path d="M96.8771 187.567C96.3885 187 95.7678 186.562 95.0699 186.291C94.372 186.021 93.6183 185.926 92.8752 186.016C92.3912 186.077 91.9299 186.257 91.5321 186.54C91.1344 186.822 90.8124 187.198 90.5949 187.635C90.3509 188.138 90.2663 188.704 90.3523 189.256C90.4383 189.809 90.6909 190.322 91.0763 190.727C91.4617 191.133 91.9616 191.411 92.5091 191.524C93.0567 191.638 93.6259 191.582 94.1407 191.363C95.1379 190.904 96.0099 190.212 96.6832 189.345C96.9064 189.132 97.0779 188.871 97.1849 188.581C97.2411 188.423 97.2538 188.253 97.2217 188.089C97.1896 187.924 97.1139 187.772 97.0025 187.646" fill="#FFBF9D"/>
<path d="M91.3018 185.047C91.6096 185.047 91.849 187.008 93.7531 188.239C95.6571 189.471 97.7663 188.992 97.8233 189.277C97.8233 189.391 97.3901 189.721 96.478 189.858C95.2846 190.022 94.0719 189.756 93.0576 189.106C92.0965 188.489 91.4104 187.525 91.1422 186.415C91.0509 185.571 91.165 185.047 91.3018 185.047Z" fill="#263238"/>
<path d="M88.1551 162.347C88.0297 162.871 86.1484 162.86 83.9936 163.373C81.8387 163.886 80.1513 164.707 79.7979 164.285C79.6497 164.08 79.9005 163.567 80.5504 162.997C81.4228 162.275 82.4545 161.77 83.5603 161.526C84.6612 161.255 85.8114 161.255 86.9123 161.526C87.756 161.811 88.2121 162.096 88.1551 162.347Z" fill="#263238"/>
<path d="M105.075 161.264C104.801 161.731 103.467 161.446 101.928 161.606C100.389 161.765 99.1118 162.221 98.7584 161.822C98.5988 161.617 98.7584 161.172 99.2828 160.682C99.9845 160.101 100.849 159.751 101.757 159.679C102.664 159.585 103.578 159.78 104.368 160.238C104.972 160.671 105.2 161.047 105.075 161.264Z" fill="#263238"/>
<path d="M81.8048 149.19C75.6038 149.543 69.5296 151.092 63.916 153.75C62.1741 154.41 60.6882 155.608 59.6748 157.171C59.033 158.668 58.8275 160.316 59.0819 161.925C59.5151 166.999 62.012 173.053 64.2809 177.59L66.9374 181.478C70.3578 180.395 72.8205 171.16 72.2846 166.953C73.9213 166.052 75.2727 164.71 76.1856 163.079C77.0985 161.449 77.5363 159.596 77.4494 157.729C78.7683 156.723 79.8444 155.433 80.5982 153.955C81.352 152.477 81.7643 150.848 81.8048 149.19V149.19Z" fill="#263238"/>
<path d="M70.6653 179.141C70.2662 176.256 66.6634 175.949 64.2805 177.625C62.9807 178.548 62.0686 180.247 62.4677 183.325C63.5394 191.5 71.5203 188.729 71.5089 188.49C71.4975 188.251 71.1441 182.516 70.6653 179.141Z" fill="#FFBF9D"/>
<path d="M68.6019 185.754C68.6019 185.754 68.4765 185.868 68.2485 186.016C67.9285 186.203 67.549 186.26 67.1882 186.176C66.6167 185.909 66.1266 185.494 65.768 184.975C65.4094 184.457 65.1952 183.852 65.1473 183.223C65.0311 182.527 65.074 181.813 65.2728 181.136C65.3143 180.871 65.4203 180.62 65.5813 180.406C65.7423 180.191 65.9534 180.019 66.1963 179.905C66.3548 179.839 66.5314 179.83 66.6956 179.88C66.8599 179.93 67.0018 180.036 67.097 180.178C67.2338 180.395 67.1996 180.566 67.2452 180.578C67.2908 180.589 67.4048 180.418 67.2452 180.087C67.1766 179.89 67.0389 179.724 66.8575 179.62C66.6134 179.476 66.3223 179.435 66.048 179.506C65.7432 179.628 65.4727 179.823 65.2601 180.073C65.0475 180.323 64.8992 180.622 64.8281 180.942C64.5712 181.693 64.5046 182.497 64.6343 183.28C64.8965 184.921 65.9454 186.347 67.1768 186.54C67.4033 186.575 67.6346 186.558 67.8537 186.491C68.0728 186.424 68.2739 186.308 68.4423 186.153C68.6133 185.913 68.6361 185.754 68.6019 185.754Z" fill="#FFBF9D"/>
<path d="M64.1437 187.886C64.5713 187.347 65.1175 186.914 65.7399 186.62H65.6145C65.7289 186.578 65.8473 186.547 65.9679 186.529C66.1786 186.438 66.4056 186.392 66.6349 186.392C66.8643 186.392 67.0912 186.438 67.3019 186.529V186.529C68.0603 186.726 68.7161 187.202 69.1375 187.863C69.4763 188.45 69.647 189.119 69.6309 189.797C69.6149 190.475 69.4126 191.135 69.0463 191.705C68.7525 192.217 68.3182 192.634 67.7949 192.907C67.2716 193.179 66.6812 193.297 66.0934 193.244C65.5701 193.128 65.0856 192.88 64.6862 192.522C64.2869 192.165 63.9862 191.711 63.8131 191.204C63.59 190.666 63.5034 190.082 63.5611 189.503C63.6188 188.924 63.8189 188.369 64.1437 187.886Z" fill="#455A64"/>
<path d="M57.896 150.415C59.5948 146.561 63.5966 144.144 67.7695 143.323C68.9797 143.084 70.2077 142.946 71.4408 142.912C70.959 141.298 70.7811 139.609 70.9163 137.93C71.1768 135.511 72.0452 133.197 73.4406 131.203C74.836 129.21 76.7132 127.602 78.8972 126.529C83.1863 124.651 88.0406 124.528 92.4192 126.187C96.7343 127.549 100.349 130.539 102.498 134.521C104.562 138.66 104.402 144.269 101.426 147.69C98.0059 150.848 93.9926 152.25 89.5575 153.105C85.6542 153.966 81.571 153.383 78.0649 151.463C67.8037 159.935 65.1586 173.947 63.4484 186.625C58.9563 178.735 57.9872 169.398 57.1093 160.402C56.847 157.039 56.5278 153.527 57.896 150.415Z" fill="#EE435B"/>
<path d="M70.0954 151.652C69.97 151.538 70.5401 150.729 71.3724 149.84C72.2047 148.95 72.9572 148.335 73.0826 148.449C73.208 148.563 72.6265 149.361 71.8056 150.25C70.9847 151.139 70.2094 151.755 70.0954 151.652Z" fill="#263238"/>
<path d="M93.9354 147.479C93.867 147.4 94.7449 146.579 95.771 144.983C97.1156 142.903 97.9334 140.528 98.1539 138.062C98.36 135.596 97.9689 133.116 97.0138 130.834C96.2613 129.089 95.5316 128.131 95.6114 128.063C95.6912 127.995 95.8622 128.257 96.1929 128.69C96.6534 129.308 97.0542 129.969 97.39 130.662C98.5272 132.971 99.0155 135.545 98.8026 138.11C98.5898 140.674 97.6837 143.133 96.1815 145.222C95.7308 145.849 95.2232 146.433 94.6651 146.966C94.209 147.331 93.9696 147.502 93.9354 147.479Z" fill="#263238"/>
<path d="M88.7708 140.399C89.1621 139.818 89.6257 139.29 90.1503 138.826C91.317 137.649 92.3955 136.387 93.3769 135.052C94.3262 133.709 95.0182 132.201 95.4177 130.605C95.7142 129.386 95.6914 128.587 95.794 128.576C95.9711 129.268 95.9711 129.993 95.794 130.685C95.4958 132.381 94.8176 133.987 93.8101 135.383C92.8251 136.763 91.6767 138.018 90.3897 139.122C89.9168 139.626 89.3711 140.057 88.7708 140.399V140.399Z" fill="#263238"/>
<g opacity="0.3">
<path opacity="0.3" d="M70.8706 139.214C70.9094 141.755 71.5892 144.245 72.8468 146.453C74.1044 148.661 75.8992 150.516 78.0648 151.846L77.9166 152.086C76.406 152.111 74.9171 151.723 73.6109 150.964C72.3046 150.205 71.2308 149.103 70.5053 147.778C69.7799 146.453 69.4305 144.954 69.4948 143.445C69.5592 141.935 70.0349 140.472 70.8706 139.214Z" fill="black"/>
</g>
<path d="M61.02 157.25C61.9822 157.597 62.9036 158.048 63.7677 158.596C64.7198 158.974 65.6294 159.452 66.4813 160.021C65.4261 160.006 64.396 159.698 63.5055 159.132C62.5218 158.741 61.6627 158.091 61.02 157.25V157.25Z" fill="white"/>
<path d="M55.969 165.676C57.1959 165.696 58.4195 165.81 59.6288 166.018C60.8625 166.035 62.0932 166.142 63.3115 166.337C62.1094 166.73 60.8297 166.824 59.5832 166.611C58.3206 166.596 57.0803 166.276 55.969 165.676V165.676Z" fill="white"/>
<path d="M66.1505 141.642C66.3215 141.642 65.7172 143.922 65.5006 146.681C65.284 149.44 65.5006 151.744 65.3068 151.766C64.4862 148.389 64.7822 144.837 66.1505 141.642V141.642Z" fill="white"/>
<path d="M69.1948 156.11C69.1948 155.939 70.2437 156.008 71.4751 155.974C72.7064 155.939 73.7554 155.837 73.7554 155.974C73.0475 156.318 72.2735 156.506 71.4863 156.524C70.6991 156.541 69.9175 156.389 69.1948 156.076V156.11Z" fill="white"/>
<path d="M61.4985 171.741C62.4427 172.356 63.2248 173.189 63.7788 174.17C64.4842 175.047 64.9725 176.078 65.204 177.18C64.4661 176.366 63.8234 175.471 63.2885 174.512C62.5878 173.66 61.9872 172.73 61.4985 171.741Z" fill="white"/>
<path d="M82.5344 148.483C82.826 147.371 83.2073 146.284 83.6746 145.233C84.4841 143.078 85.476 140.411 86.5819 137.48C87.6878 134.55 88.5999 131.848 89.3866 129.682C89.7143 128.581 90.1338 127.509 90.6408 126.478C90.4638 127.613 90.1774 128.728 89.7857 129.807C89.17 131.848 88.2465 134.63 87.1292 137.674C86.0118 140.718 84.9173 143.443 84.0622 145.393C83.6493 146.468 83.1378 147.502 82.5344 148.483V148.483Z" fill="white"/>
<path d="M75.4087 132.715C75.989 132.149 76.6499 131.673 77.3697 131.301C79.0586 130.295 80.8192 129.415 82.6371 128.667C84.4564 127.921 86.3273 127.308 88.2352 126.832C89.0148 126.588 89.8244 126.454 90.6409 126.433C90.6409 126.615 87.0723 127.481 82.8652 129.214C78.6581 130.947 75.4999 132.863 75.4087 132.715Z" fill="white"/>
<path d="M98.8496 137.56C100.046 138.665 100.975 140.028 101.568 141.545C102.16 143.062 102.4 144.693 102.27 146.317C102.088 146.317 101.974 144.184 101.027 141.756C100.081 139.328 98.7128 137.674 98.8496 137.56Z" fill="white"/>
<path d="M83.3438 153.511C84.46 153.323 85.5557 153.029 86.6159 152.633C87.5984 152.067 88.5259 151.41 89.3865 150.672C88.8606 151.769 87.972 152.651 86.8709 153.168C85.7698 153.685 84.5239 153.806 83.3438 153.511Z" fill="white"/>
<path d="M71.9196 145.028C71.8601 143.91 72.1816 142.805 72.8317 141.893C73.7666 140.308 75.112 139.464 75.112 139.613C75.112 139.761 74.1885 140.753 73.322 142.223C72.4554 143.694 72.0906 145.062 71.9196 145.028Z" fill="white"/>
<path d="M108.347 162.244C108.244 162.107 108.609 161.686 108.962 161.104C109.316 160.523 109.555 160.044 109.715 160.067C109.874 160.089 109.897 160.762 109.464 161.423C109.031 162.085 108.426 162.381 108.347 162.244Z" fill="white"/>
<path d="M74.2112 149.395C74.2796 149.463 72.9799 150.911 71.0986 153.408C68.6827 156.683 66.5831 160.18 64.8279 163.852C63.0922 167.537 61.7176 171.382 60.7234 175.333C59.9595 178.377 59.6745 180.304 59.5833 180.281C59.5716 179.823 59.6059 179.364 59.6859 178.913C59.7771 178.047 59.9937 176.781 60.3244 175.242C62.089 167.176 65.6771 159.622 70.8136 153.157C71.8055 151.926 72.6378 150.968 73.2649 150.341C73.5421 149.99 73.8597 149.672 74.2112 149.395V149.395Z" fill="#263238"/>
<path d="M56.7217 163.305C57.1424 162.229 57.6897 161.207 58.3521 160.26C59.84 157.905 61.5463 155.695 63.4485 153.659C65.352 151.619 67.4482 149.767 69.7078 148.129C70.6101 147.409 71.5935 146.797 72.638 146.305C71.7873 147.075 70.8927 147.794 69.9586 148.46C67.8067 150.184 65.7762 152.055 63.8817 154.058C62.0036 156.073 60.2701 158.218 58.6941 160.477C58.0872 161.454 57.4287 162.398 56.7217 163.305Z" fill="#263238"/>
<path d="M77.5061 128.052C77.5061 128.052 77.1527 128.622 76.6282 129.682C75.9127 131.18 75.4724 132.794 75.3285 134.448C75.1043 136.899 75.5207 139.366 76.537 141.608C77.8153 144.337 79.8954 146.612 82.4999 148.129C85.0939 149.671 88.0563 150.482 91.0737 150.478C93.5356 150.503 95.9752 150.01 98.2338 149.03C99.7512 148.359 101.108 147.372 102.213 146.134C102.988 145.245 103.285 144.641 103.353 144.686C103.421 144.732 103.353 144.846 103.159 145.119C102.942 145.521 102.69 145.902 102.407 146.26C101.336 147.594 99.975 148.666 98.4276 149.395C96.1236 150.451 93.6195 150.999 91.0851 151.003C87.9654 151.04 84.8961 150.215 82.2149 148.62C79.5017 147.031 77.3469 144.641 76.0468 141.779C75.0155 139.445 74.622 136.88 74.9066 134.345C75.0944 132.651 75.6094 131.009 76.423 129.511C76.6524 129.115 76.9076 128.734 77.1869 128.371C77.3693 128.166 77.4833 128.04 77.5061 128.052Z" fill="#263238"/>
<path d="M71.3723 136.432C71.4749 136.432 71.2697 137.663 71.3039 139.624C71.305 142.187 71.9187 144.712 73.0939 146.989C74.3083 149.204 76.2088 150.964 78.5095 152.006C79.4916 152.384 80.5018 152.685 81.5309 152.906C81.2453 152.968 80.9499 152.968 80.6644 152.906C79.8827 152.837 79.115 152.656 78.3841 152.371C75.9089 151.379 73.8595 149.552 72.5922 147.206C71.3741 144.862 70.7923 142.24 70.9048 139.601C70.9292 138.813 71.0131 138.028 71.1557 137.252C71.1791 136.968 71.2524 136.69 71.3723 136.432V136.432Z" fill="#263238"/>
<g opacity="0.3">
<path opacity="0.3" d="M65.3983 161.971C63.4906 166.236 61.9274 170.647 60.7237 175.162C60.1419 176.608 59.9915 178.192 60.2905 179.722C60.3703 180.007 60.6097 180.361 60.9062 180.258C61.2026 180.156 61.157 179.973 61.2026 179.779C63.1108 172.225 65.4636 164.79 68.2486 157.513L65.3983 161.971Z" fill="black"/>
</g>
<g opacity="0.3">
<path opacity="0.3" d="M96.843 129.636C99.1233 135.679 98.8496 142.303 94.2549 147.32C95.2746 147.094 96.2201 146.613 97.0021 145.921C97.7841 145.228 98.3768 144.348 98.7242 143.364C99.5768 141.099 99.8512 138.658 99.5227 136.262C99.1943 133.865 98.2732 131.588 96.843 129.636V129.636Z" fill="black"/>
</g>
<path d="M182.501 322.387C161.394 321.871 141.035 321.916 121.424 322.524L121.641 322.387L128.482 258.323L102.601 214.896L101.05 213.436C95.6572 216.013 90.652 217.199 84.7575 216.184L69.7191 213.619C62.8783 219.57 50.4395 232.317 50.4395 232.761C50.4395 233.206 67.1082 314.463 67.1082 314.463L77.0502 324.223L48.9231 344.016C48.9231 344.016 49.4932 363.546 62.6959 368.871C75.8987 374.195 134.593 370.17 141.445 369.315C141.445 369.315 167.087 359.351 170.644 356.306C174.201 353.262 183.516 329.034 182.501 322.387Z" fill="#263238"/>
<path d="M112.235 331.417C112.441 331.424 112.647 331.447 112.85 331.486L114.572 331.748C116.077 331.999 118.243 332.398 120.9 332.945C126.235 334.017 133.555 335.716 141.593 337.745L162.115 343.069L168.341 344.7L170.028 345.156C170.227 345.205 170.421 345.27 170.609 345.35C170.405 345.348 170.201 345.317 170.005 345.259L168.295 344.905C166.801 344.574 164.669 344.084 162.024 343.446C156.734 342.169 149.483 340.299 141.422 338.27C133.361 336.24 126.099 334.484 120.797 333.321C118.141 332.728 115.986 332.272 114.503 331.965L112.793 331.588C112.601 331.555 112.413 331.497 112.235 331.417V331.417Z" fill="#455A64"/>
<path d="M106.545 322.034C108.189 321.881 109.844 321.908 111.482 322.114C113.13 322.142 114.77 322.349 116.373 322.73C114.73 322.882 113.074 322.856 111.437 322.65C109.789 322.621 108.149 322.415 106.545 322.034V322.034Z" fill="#455A64"/>
<path d="M106.249 310.359C106.386 310.256 108.016 312.434 110.468 314.691C112.919 316.949 115.188 318.431 115.096 318.568C113.233 317.72 111.54 316.537 110.103 315.079C108.544 313.751 107.238 312.152 106.249 310.359V310.359Z" fill="#455A64"/>
<path d="M104.835 276.725C104.767 276.645 105.667 275.824 106.887 274.297C110.046 270.275 111.839 265.35 112.007 260.239C112.064 258.289 111.904 257.081 112.007 257.069C112.113 257.339 112.178 257.624 112.2 257.913C112.317 258.668 112.378 259.43 112.383 260.193C112.429 265.428 110.578 270.503 107.172 274.479C106.666 275.073 106.117 275.629 105.531 276.144C105.331 276.373 105.097 276.57 104.835 276.725Z" fill="#455A64"/>
<path d="M112.109 216.218C119.429 220.779 126.658 232.408 128.47 244.801L132.529 264.001C132.529 264.001 135.596 262.348 137.489 264.685C138.144 265.486 138.626 266.415 138.905 267.412C139.184 268.408 139.253 269.452 139.108 270.477L147.533 276.36L134.068 286.154L124.856 297.487C124.856 297.487 132.757 320.7 134.068 322.98C135.38 325.261 137.979 329.205 137.979 329.205L125.916 326.925C125.916 326.925 117.776 321.065 118.095 311.283C118.414 301.5 119.384 264.035 118.095 259.144C116.807 254.253 100.993 213.47 100.993 213.47L112.109 216.218Z" fill="#F3A84E"/>
<path d="M126.258 297.293C126.213 297.106 126.186 296.915 126.178 296.723C126.178 296.29 126.099 295.754 126.053 295.093C125.985 293.679 125.95 291.672 126.053 289.084C126.201 283.999 126.76 277.01 127.113 269.291C127.438 262.701 127.403 256.097 127.011 249.51C126.817 246.979 126.657 244.949 126.475 243.536C126.475 242.874 126.361 242.339 126.315 241.905C126.295 241.716 126.295 241.525 126.315 241.335C126.387 241.514 126.433 241.702 126.452 241.894L126.703 243.513C126.954 244.904 127.17 246.933 127.421 249.476C127.931 256.076 128.014 262.703 127.672 269.314C127.319 277.056 126.703 284.033 126.463 289.095C126.338 291.627 126.315 293.656 126.315 295.093C126.315 295.754 126.315 296.29 126.315 296.723C126.326 296.915 126.307 297.107 126.258 297.293V297.293Z" fill="#263238"/>
<path d="M100.172 287.534L94.4717 265.768L69.6852 213.619L48.5585 223.823C47.9995 224.03 47.4612 224.29 46.9509 224.598V224.598C44.8545 225.964 43.1213 227.819 41.9001 230.002C38.9168 235.118 37.8195 241.116 38.799 246.956L46.9281 298.547C49.1844 304.428 51.8513 310.143 54.9091 315.649L42.5842 352.761C42.5842 352.761 74.0177 368.472 84.2105 368.426C92.7957 368.426 100.298 368.335 101.712 351.598C103.125 334.861 100.172 287.534 100.172 287.534Z" fill="#F3A84E"/>
<path d="M73.9492 297.293C73.8808 297.293 74.257 296.267 74.7473 294.591C75.0362 293.602 75.3826 292.632 75.7848 291.684C76.276 290.474 77.0595 289.404 78.0651 288.571C79.078 287.764 80.3177 287.294 81.6109 287.226C82.6671 287.179 83.7199 287.374 84.6893 287.796C85.344 288.063 85.9432 288.45 86.4565 288.936C86.8099 289.289 86.9581 289.517 86.9353 289.54C86.2066 288.969 85.4053 288.498 84.5525 288.138C83.6242 287.792 82.6338 287.645 81.6451 287.705C80.4449 287.776 79.2935 288.205 78.3387 288.936C77.4168 289.748 76.695 290.763 76.2295 291.9C75.7506 292.915 75.42 293.895 75.0893 294.716C74.8273 295.623 74.4438 296.49 73.9492 297.293V297.293Z" fill="#263238"/>
<path d="M67.1082 277.101C67.1082 277.101 67.3476 276.953 67.8378 276.816C68.5303 276.639 69.2439 276.558 69.9585 276.577C71.1545 276.583 72.3368 276.832 73.4335 277.309C74.5301 277.787 75.5181 278.482 76.3373 279.354C77.1565 280.225 77.7897 281.254 78.1984 282.378C78.6071 283.502 78.7828 284.698 78.7147 285.892C78.6902 286.609 78.5636 287.319 78.3385 288.001C78.1789 288.468 78.042 288.719 78.0078 288.708C78.1932 287.776 78.3038 286.83 78.3385 285.88C78.3649 283.599 77.507 281.397 75.9446 279.734C74.3823 278.072 72.2369 277.079 69.9585 276.965C69.0064 276.946 68.0541 276.992 67.1082 277.101V277.101Z" fill="#263238"/>
<path d="M67.1082 236.022C67.3243 236.525 67.4886 237.048 67.5984 237.584C67.8834 238.599 68.2597 240.07 68.6815 241.894C69.5252 245.554 70.4944 250.65 71.2126 256.328C71.9309 262.006 72.2388 267.205 72.3528 270.956C72.3528 272.826 72.3528 274.376 72.3528 275.391C72.3678 275.936 72.3373 276.482 72.2616 277.021C72.1762 276.482 72.1381 275.937 72.1475 275.391C72.1475 274.251 72.0335 272.757 71.9537 270.967C71.7713 267.228 71.3951 262.063 70.6882 256.396C69.9813 250.73 69.0578 245.645 68.3167 241.974C67.9519 240.218 67.644 238.747 67.4046 237.63C67.2613 237.103 67.1622 236.565 67.1082 236.022V236.022Z" fill="#263238"/>
<path d="M48.6948 225.658C49.4718 225.434 50.2819 225.345 51.0891 225.396C55.0145 225.428 58.807 226.822 61.8178 229.341C62.4604 229.825 63.0157 230.415 63.4596 231.086C61.4117 229.354 59.1029 227.957 56.6188 226.947C54.0611 226.105 51.3873 225.671 48.6948 225.658V225.658Z" fill="#263238"/>
<path d="M55.832 317.223C55.9895 317.383 56.1309 317.559 56.2539 317.747L57.394 319.309C58.8696 321.13 60.6907 322.641 62.7526 323.756C65.8676 325.295 69.3501 325.934 72.8086 325.603C77.0416 325.153 81.0886 323.626 84.5634 321.167C85.4188 320.566 86.2409 319.919 87.0261 319.229L86.9463 319.434C86.9463 311.077 86.8779 303.644 86.8551 298.228C86.8551 295.594 86.8551 293.451 86.8551 291.9C86.8551 291.193 86.8551 290.635 86.8551 290.19C86.8311 289.993 86.8311 289.794 86.8551 289.597C86.8754 289.794 86.8754 289.993 86.8551 290.19C86.8551 290.635 86.8551 291.193 86.9235 291.9C86.9235 293.451 87.0033 295.594 87.0603 298.217C87.1287 303.644 87.2199 311.077 87.3225 319.423V319.56L87.2313 319.628C86.4293 320.336 85.5881 320.999 84.7116 321.612C81.197 324.108 77.0964 325.651 72.8086 326.093C69.2671 326.411 65.708 325.715 62.5474 324.086C60.4643 322.924 58.6438 321.345 57.2002 319.446C56.7327 318.75 56.4021 318.18 56.1627 317.804C56.0327 317.622 55.9219 317.427 55.832 317.223V317.223Z" fill="#263238"/>
<g opacity="0.3">
<path opacity="0.3" d="M101.574 315.797C97.8462 317.359 93.1489 318.83 92.3736 322.798C92.2878 324.131 92.1087 325.457 91.8377 326.765C90.7888 329.787 86.9807 330.653 83.7884 330.95C78.4069 331.44 72.8431 331.657 67.7011 329.969C62.5591 328.282 57.8617 324.348 56.6304 319.081C61.3163 321.977 63.4712 325.283 68.9552 326.184C71.9994 326.697 77.6887 324.713 80.6188 323.744C83.5489 322.775 87.1746 318.819 87.1746 318.819C87.4368 317.804 87.1746 314.429 86.9351 315.455C86.8553 315.797 91.9061 312.571 94.4258 311.625C97.4244 310.484 101.574 308.501 101.574 308.501" fill="black"/>
</g>
<g opacity="0.3">
<path opacity="0.3" d="M77.0502 289.711C76.2407 293.382 73.9035 299.14 72.6835 302.697C72.4993 303.332 72.2061 303.93 71.817 304.465C71.6165 304.73 71.353 304.941 71.0504 305.078C70.7477 305.215 70.4155 305.275 70.084 305.251C69.6014 305.12 69.1849 304.813 68.9152 304.392C68.6456 303.971 68.542 303.464 68.6246 302.971C68.792 302 69.2084 301.088 69.8332 300.326L77.0502 289.666" fill="black"/>
</g>
<path d="M57.6792 335.271C57.9432 334.648 58.2678 334.052 58.6483 333.492C59.3096 332.352 60.2787 330.79 61.453 328.932L61.5443 328.784H61.7267C64.121 329.662 67.0169 330.653 70.1637 331.623C74.462 332.956 78.4182 333.96 81.2914 334.655L84.7118 335.465C85.1385 335.533 85.5556 335.652 85.9545 335.818C85.525 335.812 85.0972 335.762 84.6776 335.67C83.8567 335.545 82.6709 335.328 81.2572 335.032C78.3612 334.427 74.4164 333.47 70.061 332.136C66.9029 331.166 64.0069 330.129 61.6241 329.205L61.8863 329.114C60.6777 330.995 59.606 332.535 58.9333 333.618C58.5646 334.205 58.1449 334.758 57.6792 335.271V335.271Z" fill="#263238"/>
<path d="M83.7998 345.019C84.2461 343.554 84.783 342.119 85.4074 340.721C85.8544 339.253 86.3912 337.813 87.015 336.411C86.6272 339.491 85.5263 342.439 83.7998 345.019V345.019Z" fill="#263238"/>
<path d="M57.7249 336.012C57.7249 335.932 59.093 336.73 61.3049 337.848C64.1803 339.305 67.1697 340.525 70.2435 341.496C73.3192 342.47 76.4633 343.213 79.6496 343.719C82.1009 344.107 83.6287 344.244 83.6287 344.335C83.2693 344.384 82.9049 344.384 82.5456 344.335C81.8501 344.335 80.8354 344.232 79.604 344.084C76.374 343.684 73.1874 342.989 70.0839 342.009C66.9795 341.026 63.9782 339.743 61.1225 338.178C59.9823 337.574 59.1728 337.038 58.5914 336.65C58.2762 336.476 57.9849 336.261 57.7249 336.012V336.012Z" fill="#263238"/>
<g opacity="0.3">
<path opacity="0.3" d="M81.8615 344.232C81.9978 344.556 82.0065 344.92 81.886 345.249C81.7654 345.579 81.5245 345.851 81.2116 346.011C80.5713 346.309 79.8609 346.423 79.1594 346.342C71.5125 346.046 64.1511 343.358 58.1125 338.657C57.4969 338.19 56.8698 337.312 57.3942 336.742C57.9187 336.172 58.6142 336.582 59.1843 336.901C66.3359 341.081 74.2959 343.689 82.5342 344.552" fill="black"/>
</g>
<path d="M87.1743 290.452L134.114 280.305L143.919 277.865L151.66 282.54C152.206 282.866 152.671 283.311 153.02 283.842C153.37 284.373 153.595 284.976 153.678 285.607L154.351 290.623L153.405 291.444L154.636 293.724C154.9 294.218 155.014 294.778 154.963 295.335C154.913 295.892 154.7 296.422 154.351 296.86V296.86L146.438 290.92L151.603 298.171C151.117 298.529 150.563 298.785 149.976 298.924C149.388 299.063 148.778 299.082 148.183 298.98C145.732 298.821 139.609 290.418 139.609 290.418L135.596 289.791L144.044 298.912C144.044 298.912 144.42 299.676 142.619 300.326C140.818 300.976 131.457 293.759 131.457 293.759L87.3909 315.227" fill="#FFBF9D"/>
<path d="M135.838 289.532L139.541 290.11C139.608 290.124 139.668 290.16 139.712 290.213C141.247 292.306 142.911 294.301 144.694 296.187C145.558 297.155 146.584 297.966 147.727 298.581C148.34 298.72 148.975 298.735 149.594 298.623C150.148 298.523 150.679 298.324 151.161 298.037L149.802 296.13L146.165 291.022C146.144 290.994 146.128 290.961 146.12 290.926C146.112 290.891 146.111 290.855 146.118 290.819C146.124 290.784 146.138 290.751 146.158 290.721C146.177 290.691 146.203 290.666 146.233 290.646C146.278 290.614 146.332 290.596 146.387 290.596C146.442 290.596 146.496 290.614 146.541 290.646L146.644 290.723L146.689 290.68L146.807 290.846L152.949 295.457L153.735 296.05L154.123 296.347L154.176 296.385C154.45 295.945 154.587 295.431 154.568 294.91C154.513 294.3 154.3 293.715 153.952 293.211L153.04 291.524C153.002 291.477 152.981 291.419 152.981 291.359C152.981 291.298 153.002 291.24 153.04 291.193L153.877 290.477C153.678 288.973 153.479 287.491 153.279 286.051C153.238 285.339 153.012 284.649 152.625 284.049C152.237 283.45 151.7 282.961 151.067 282.631L143.654 278.104L137.796 279.621C135.801 280.111 133.84 280.613 131.913 281.001L120.945 283.349L103.022 287.226L91.3472 289.677L88.246 290.304L87.4479 290.464H87.1743L87.4366 290.384L88.2346 290.201L91.313 289.495L102.965 286.895L120.899 282.962L131.856 280.567C133.783 280.168 135.733 279.667 137.739 279.165L143.862 277.649C143.89 277.635 143.921 277.627 143.953 277.627C143.985 277.627 144.016 277.635 144.044 277.649L151.535 282.152C152.234 282.526 152.826 283.071 153.256 283.737C153.685 284.425 153.936 285.208 153.986 286.017C154.191 287.534 154.397 289.061 154.613 290.578C154.618 290.62 154.612 290.663 154.596 290.703C154.58 290.743 154.555 290.778 154.522 290.806L153.694 291.524L154.499 292.995C154.881 293.572 155.116 294.233 155.183 294.922C155.208 295.639 154.987 296.343 154.556 296.917V296.974H154.18L154.077 296.894L153.884 296.746L153.496 296.449L152.709 295.857L147.693 292.09L150.326 295.788C150.851 296.518 151.364 297.259 151.854 297.932C151.891 297.976 151.911 298.033 151.911 298.091C151.911 298.149 151.891 298.206 151.854 298.251C151.268 298.706 150.572 298.998 149.836 299.094C149.489 299.144 149.138 299.171 148.787 299.174H148.263C148.074 299.143 147.888 299.101 147.704 299.049C146.473 298.42 145.37 297.565 144.455 296.529C142.68 294.653 141.025 292.668 139.501 290.584L136.355 290.092L135.596 289.973L135.834 289.531L135.835 289.529C135.836 289.53 135.837 289.531 135.838 289.532Z" fill="#FFBF9D"/>
<path d="M151.604 298.148C150.904 297.404 150.267 296.603 149.7 295.754C148.559 294.238 147.066 292.128 145.424 289.768C144.827 288.61 143.812 287.721 142.585 287.283C141.445 286.963 140.305 286.77 139.393 286.542C138.388 286.379 137.403 286.115 136.451 285.755C137.468 285.806 138.479 285.943 139.473 286.165C140.407 286.348 141.491 286.485 142.733 286.815C144.091 287.265 145.22 288.226 145.88 289.495C147.522 291.832 148.981 293.975 150.019 295.549C150.63 296.362 151.16 297.233 151.604 298.148Z" fill="#FFBF9D"/>
<path d="M153.188 291.57C152.532 290.93 151.923 290.244 151.364 289.517C149.937 287.846 148.414 286.258 146.804 284.763L145.413 283.498L144.751 282.905L144.421 282.608C144.421 282.608 144.307 282.494 144.272 282.494H144.181C143.132 282.369 142.083 282.392 141.251 282.357C140.333 282.4 139.414 282.358 138.503 282.232C139.408 282.051 140.329 281.967 141.251 281.981C142.253 281.914 143.259 281.914 144.261 281.981H144.387L144.569 282.061C144.64 282.102 144.705 282.152 144.763 282.209L145.093 282.494L145.766 283.076L147.168 284.341C148.799 285.853 150.301 287.496 151.661 289.255C152.269 289.956 152.783 290.734 153.188 291.57Z" fill="#FFBF9D"/>
<path d="M219.464 308.74L235.905 263.34C236.276 262.439 236.419 261.461 236.322 260.492C236.225 259.522 235.891 258.592 235.349 257.783C234.806 256.973 234.073 256.31 233.214 255.852C232.354 255.393 231.395 255.153 230.421 255.154H181.84C180.6 255.152 179.39 255.54 178.382 256.262C177.374 256.984 176.617 258.004 176.219 259.178L160.679 304.966L133.646 305.057C132.176 305.057 130.899 307.03 130.899 308.478H139.792H159.847L219.464 308.74Z" fill="#E0E0E0"/>
<path d="M219.464 308.74H219.054H194.803L166.756 308.683C155.982 308.626 143.953 308.751 130.922 308.683H130.648V308.409C130.675 307.738 130.858 307.082 131.184 306.494C131.505 305.894 131.976 305.387 132.552 305.023C132.863 304.833 133.215 304.719 133.578 304.693H136.463H144.318L160.702 304.636L160.428 304.829L167.463 284.079C169.048 279.427 170.598 274.821 172.137 270.295C172.898 268.014 173.658 265.765 174.418 263.545L175.558 260.216C175.763 259.657 175.911 259.076 176.151 258.551C176.403 257.993 176.729 257.472 177.12 257.001C177.715 256.315 178.45 255.766 179.277 255.39C180.103 255.014 181.001 254.821 181.908 254.823H203.446H227.616H230.433C231.395 254.821 232.345 255.048 233.203 255.484C234.036 255.907 234.763 256.511 235.329 257.254C235.896 257.996 236.288 258.857 236.475 259.771C236.662 260.661 236.642 261.581 236.418 262.462C236.167 263.317 235.848 264.104 235.563 264.902C234.982 266.487 234.423 268.037 233.864 269.554L223.307 298.319C222.064 301.671 221.106 304.282 220.434 306.072C220.114 306.939 219.863 307.611 219.681 308.079C219.499 308.546 219.419 308.74 219.419 308.74C219.419 308.74 219.487 308.489 219.647 308.033L220.365 305.981C221.004 304.168 221.95 301.534 223.147 298.148C225.576 291.307 229.087 281.559 233.408 269.462C233.956 267.958 234.548 266.407 235.073 264.822C235.358 264.035 235.677 263.226 235.905 262.439C236.088 261.621 236.088 260.772 235.905 259.954C235.724 259.109 235.357 258.316 234.83 257.632C234.304 256.947 233.631 256.389 232.861 255.997C231.299 255.142 229.384 255.462 227.491 255.405H203.32H183.596C182.481 255.335 181.362 255.411 180.267 255.633C179.206 255.945 178.259 256.559 177.542 257.4C177.181 257.817 176.885 258.286 176.664 258.791C176.459 259.292 176.288 259.931 176.094 260.421L174.954 263.75C174.193 265.985 173.433 268.235 172.673 270.5C171.153 275.061 169.595 279.651 167.999 284.273C165.593 291.387 163.222 298.365 160.953 305.035L160.896 305.228H160.679H144.307H136.451H133.578C133.306 305.246 133.043 305.332 132.814 305.479C132.333 305.802 131.934 306.233 131.648 306.738C131.363 307.243 131.2 307.808 131.172 308.387L130.899 308.113C143.919 308.113 155.982 308.056 166.699 308.113L194.655 308.307L212.897 308.478L217.754 308.535H219.02L219.464 308.74Z" fill="#263238"/>
<path d="M182.262 255.302C182.248 255.49 182.206 255.674 182.136 255.849L181.635 257.411C181.144 258.836 180.495 260.763 179.696 263.112C178.032 267.912 175.695 274.513 173.084 281.799C170.473 289.084 168.078 295.663 166.311 300.428L164.191 306.049L163.598 307.566C163.53 307.744 163.446 307.916 163.347 308.079C163.36 307.886 163.406 307.697 163.484 307.52L163.974 305.969C164.464 304.533 165.114 302.617 165.912 300.269C167.577 295.48 169.914 288.867 172.525 281.582C175.136 274.297 177.53 267.718 179.297 262.964L181.418 257.343C181.657 256.738 181.851 256.203 182.022 255.826C182.08 255.642 182.16 255.466 182.262 255.302V255.302Z" fill="#263238"/>
<path d="M120.786 316.778H273.837C274.935 316.778 275.988 316.342 276.764 315.566C277.54 314.79 277.976 313.737 277.976 312.639V312.639C277.973 311.543 277.536 310.492 276.76 309.716C275.985 308.941 274.934 308.504 273.837 308.501H120.786C119.688 308.501 118.635 308.937 117.859 309.713C117.083 310.489 116.647 311.542 116.647 312.639C116.645 313.183 116.752 313.722 116.959 314.225C117.166 314.728 117.471 315.184 117.856 315.569C118.24 315.954 118.697 316.258 119.2 316.466C119.703 316.673 120.242 316.779 120.786 316.778V316.778Z" fill="#455A64"/>
<path d="M191.987 486.282H205.338L205.338 315.227H191.987L191.987 486.282Z" fill="#455A64"/>
<path d="M243.715 486.282H152.892C153.484 486.282 191.998 476.078 191.998 476.078H205.349L243.715 486.282Z" fill="#455A64"/>
<path d="M120.387 316.424C120.387 316.276 154.99 316.162 197.676 316.162C240.363 316.162 274.978 316.276 274.978 316.424C274.978 316.573 240.374 316.698 197.676 316.698C154.978 316.698 120.387 316.573 120.387 316.424Z" fill="#263238"/>
<path d="M342.624 144H354.208L337.952 99.072H325.28L309.024 144H320.48L323.168 136.064H339.936L342.624 144ZM337.12 127.616H326.048L331.552 111.168L337.12 127.616ZM370.1 127.424C370.1 121.28 373.108 119.488 378.292 119.488H381.3V107.904C376.5 107.904 372.596 110.464 370.1 114.24V108.288H359.156V144H370.1V127.424ZM388.259 131.584C388.259 140.864 393.443 144 400.867 144H406.435V134.72H402.531C400.099 134.72 399.203 133.824 399.203 131.712V117.376H406.371V108.288H399.203V99.584H388.259V108.288H383.907V117.376H388.259V131.584ZM412.531 144H423.475V108.288H412.531V144ZM418.035 104.576C421.875 104.576 424.499 101.952 424.499 98.688C424.499 95.36 421.875 92.736 418.035 92.736C414.131 92.736 411.507 95.36 411.507 98.688C411.507 101.952 414.131 104.576 418.035 104.576ZM431.406 144H442.35V129.024L453.23 144H466.798L451.822 126.208L466.67 108.288H453.166L442.35 122.816V96.64H431.406V144ZM486.712 116.544C490.36 116.544 493.432 118.784 493.432 122.688H479.736C480.376 118.72 483.128 116.544 486.712 116.544ZM503.8 132.16H492.152C491.256 134.08 489.528 135.616 486.456 135.616C482.936 135.616 480.056 133.44 479.672 128.768H504.44C504.568 127.68 504.632 126.592 504.632 125.568C504.632 114.688 497.272 107.776 486.84 107.776C476.216 107.776 468.792 114.816 468.792 126.144C468.792 137.472 476.344 144.512 486.84 144.512C495.736 144.512 502.072 139.136 503.8 132.16ZM510.406 144H521.35V96.64H510.406V144Z" fill="#1C2661"/>
<path d="M414.978 396.658C414.978 398.802 413.474 400.05 411.01 400.05H406.082V393.106H410.882C413.314 393.106 414.978 394.45 414.978 396.658ZM414.402 386.962C414.402 389.01 412.962 390.13 410.594 390.13H406.082V383.762H410.594C412.962 383.762 414.402 384.946 414.402 386.962ZM418.626 397.042C418.626 394.386 416.706 392.018 414.338 391.602C416.482 390.834 418.114 389.202 418.114 386.514C418.114 383.378 415.618 380.786 410.914 380.786H402.434V403.026H411.33C415.874 403.026 418.626 400.434 418.626 397.042ZM421.374 394.13C421.374 399.57 425.054 403.314 429.63 403.314C432.574 403.314 434.686 401.906 435.806 400.402V403.026H439.486V385.394H435.806V387.954C434.718 386.514 432.67 385.106 429.694 385.106C425.054 385.106 421.374 388.69 421.374 394.13ZM435.806 394.194C435.806 398.002 433.214 400.146 430.462 400.146C427.742 400.146 425.118 397.938 425.118 394.13C425.118 390.322 427.742 388.274 430.462 388.274C433.214 388.274 435.806 390.418 435.806 394.194ZM443.062 394.194C443.062 399.73 446.646 403.314 451.702 403.314C456.022 403.314 458.838 400.914 459.83 397.458H455.894C455.222 399.282 453.878 400.242 451.702 400.242C448.758 400.242 446.806 398.066 446.806 394.194C446.806 390.354 448.758 388.178 451.702 388.178C453.878 388.178 455.286 389.266 455.894 390.962H459.83C458.838 387.25 456.022 385.106 451.702 385.106C446.646 385.106 443.062 388.69 443.062 394.194ZM462.249 394.13C462.249 399.57 465.929 403.314 470.505 403.314C473.449 403.314 475.561 401.906 476.681 400.402V403.026H480.361V385.394H476.681V387.954C475.593 386.514 473.545 385.106 470.569 385.106C465.929 385.106 462.249 388.69 462.249 394.13ZM476.681 394.194C476.681 398.002 474.089 400.146 471.337 400.146C468.617 400.146 465.993 397.938 465.993 394.13C465.993 390.322 468.617 388.274 471.337 388.274C474.089 388.274 476.681 390.418 476.681 394.194Z" fill="white"/>
</svg>
