<svg width="741" height="566" viewBox="0 0 741 566" fill="none" xmlns="http://www.w3.org/2000/svg">
<path d="M716.019 320.787C714.324 321.697 712.53 322.408 710.671 322.906C708.882 323.62 707.017 324.126 705.112 324.414C706.807 323.504 708.601 322.793 710.46 322.295C712.251 321.588 714.116 321.082 716.019 320.787V320.787Z" fill="#E0E0E0"/>
<path d="M577.339 519.626V564.926H583.397L591.537 519.128L577.339 519.626Z" fill="#E0E0E0"/>
<path d="M632.474 519.626V564.926H638.545L646.685 519.128L632.474 519.626Z" fill="#E0E0E0"/>
<path d="M701.422 519.626V564.926H695.363L687.223 519.128L701.422 519.626Z" fill="#E0E0E0"/>
<path d="M740.165 519.626V564.926H734.094L725.954 519.128L740.165 519.626Z" fill="#E0E0E0"/>
<path d="M615.222 419.988C615.222 419.988 591.263 413.07 584.644 422.282C578.024 431.494 577.339 520.262 577.339 520.262C577.339 520.262 620.109 521.035 620.894 520.262C621.679 519.489 615.222 419.988 615.222 419.988Z" fill="#E0E0E0"/>
<path d="M738.944 504.069L739.991 350.168C740.022 345.449 739.117 340.771 737.327 336.404C735.537 332.037 732.898 328.07 729.563 324.73C726.228 321.391 722.264 318.747 717.9 316.951C713.536 315.155 708.859 314.242 704.139 314.267H647.67C642.977 314.268 638.332 315.206 634.007 317.028C629.682 318.85 625.765 321.518 622.486 324.876C619.207 328.234 616.633 332.213 614.915 336.58C613.196 340.947 612.368 345.614 612.48 350.305L616.107 504.069H738.944Z" fill="#EBEBEB"/>
<path d="M738.943 504.069C738.943 504.069 717.166 471.945 691.574 470.886C665.982 469.826 610.809 470.886 610.809 470.886C610.809 470.886 586.352 471.82 584.631 502.112V519.975H738.943V504.069Z" fill="#EBEBEB"/>
<path d="M688.869 471.808L625.531 471.484C618.912 471.484 611.395 470.636 604.988 472.456C586.102 477.804 583.335 501.95 584.831 518.579C584.831 519.252 583.834 519.252 583.771 518.579C582.525 504.605 583.983 485.047 595.925 475.747C602.819 470.387 610.822 470.3 619.049 470.337L688.857 470.711C688.983 470.731 689.098 470.795 689.182 470.892C689.265 470.989 689.311 471.113 689.311 471.241C689.311 471.369 689.265 471.493 689.182 471.59C689.098 471.687 688.983 471.751 688.857 471.771L688.869 471.808Z" fill="#E0E0E0"/>
<path d="M629.906 319.079L630.318 318.929C630.579 318.855 630.991 318.705 631.564 318.58C632.138 318.456 632.811 318.356 633.596 318.231C634.381 318.107 635.329 318.019 636.388 317.932C640.589 317.571 646.685 317.346 654.227 317.296C657.966 317.296 662.13 317.296 666.555 317.296C671.28 317.251 676.003 317.467 680.704 317.945C683.251 318.247 685.777 318.7 688.27 319.303C690.888 319.908 693.427 320.811 695.837 321.996C700.817 324.756 704.917 328.865 707.667 333.851C708.336 335.14 708.862 336.499 709.238 337.902C709.555 339.293 709.772 340.706 709.886 342.128C710.222 344.908 710.484 347.65 710.758 350.355C711.282 355.753 711.656 360.976 712.005 365.95C712.628 375.922 712.902 384.873 713.089 392.402C713.276 399.931 713.326 406.039 713.364 410.253C713.364 412.322 713.364 413.992 713.364 415.102C713.364 415.625 713.364 416.049 713.364 416.348C713.383 416.493 713.383 416.64 713.364 416.785C713.348 416.64 713.348 416.493 713.364 416.348C713.364 416.037 713.364 415.613 713.364 415.102C713.364 413.955 713.276 412.322 713.214 410.253C713.089 406.002 712.927 399.919 712.728 392.414C712.529 384.91 712.167 375.922 711.481 365.987C711.157 361.001 710.758 355.803 710.235 350.418C709.961 347.725 709.686 344.983 709.362 342.203C709.247 340.81 709.034 339.427 708.727 338.064C708.356 336.709 707.842 335.396 707.193 334.15C705.881 331.678 704.2 329.421 702.207 327.456C700.284 325.52 698.092 323.87 695.7 322.557C693.336 321.393 690.848 320.502 688.283 319.902C685.819 319.299 683.321 318.841 680.803 318.531C676.124 318.048 671.422 317.815 666.717 317.832C662.292 317.758 658.166 317.708 654.401 317.708C646.922 317.708 640.776 317.845 636.575 318.132L633.796 318.381L631.764 318.668C631.228 318.755 630.829 318.892 630.517 318.954C630.323 319.033 630.116 319.075 629.906 319.079Z" fill="#E0E0E0"/>
<path d="M720.232 359.555C718.893 360.36 717.45 360.981 715.944 361.4C714.514 362.022 713.003 362.442 711.457 362.646C712.791 361.839 714.23 361.219 715.732 360.801C717.167 360.178 718.682 359.759 720.232 359.555Z" fill="#E0E0E0"/>
<path d="M715.471 368.393C715.471 368.568 714.548 368.68 713.451 368.63C712.354 368.58 711.444 368.393 711.457 368.219C711.469 368.044 712.367 367.932 713.476 367.982C714.586 368.032 715.471 368.219 715.471 368.393Z" fill="#E0E0E0"/>
<path d="M679.208 365.451C679.208 365.451 679.383 365.289 679.794 365.252C680.389 365.242 680.969 365.445 681.427 365.825C681.791 366.116 682.062 366.507 682.206 366.95C682.35 367.393 682.361 367.869 682.237 368.318C682.087 368.862 681.775 369.346 681.343 369.709C680.911 370.072 680.38 370.295 679.819 370.35C679.259 370.366 678.707 370.217 678.231 369.923C677.754 369.628 677.375 369.2 677.139 368.692C676.948 368.283 676.866 367.832 676.901 367.382C676.936 366.932 677.087 366.499 677.338 366.124C677.643 365.625 678.103 365.24 678.647 365.027C679.034 364.89 679.258 364.903 679.271 364.94C678.634 365.262 678.098 365.754 677.725 366.361C677.555 366.68 677.465 367.035 677.465 367.396C677.465 367.757 677.555 368.112 677.725 368.431C677.926 368.813 678.229 369.132 678.601 369.353C678.973 369.573 679.399 369.685 679.832 369.677C680.262 369.629 680.668 369.456 681.001 369.179C681.333 368.902 681.577 368.533 681.701 368.119C681.808 367.779 681.814 367.416 681.719 367.074C681.624 366.731 681.431 366.423 681.165 366.187C680.631 365.7 679.931 365.436 679.208 365.451V365.451Z" fill="#E0E0E0"/>
<path d="M681.302 351.153C681.365 351.228 680.629 351.789 679.732 352.923C678.555 354.369 677.75 356.081 677.388 357.909C677.07 359.759 677.207 361.659 677.787 363.444C678.236 364.828 678.722 365.601 678.635 365.663C678.064 365.084 677.637 364.38 677.388 363.606C676.642 361.762 676.43 359.744 676.777 357.785C677.142 355.834 678.054 354.026 679.407 352.574C679.911 351.95 680.562 351.462 681.302 351.153V351.153Z" fill="#E0E0E0"/>
<path d="M679.906 385.409C679.233 384.828 678.686 384.115 678.298 383.314C677.226 381.438 676.564 379.357 676.353 377.206C676.239 376.027 676.264 374.839 676.428 373.666C676.543 372.668 676.926 371.72 677.538 370.924C677.972 370.405 678.555 370.031 679.208 369.852C679.682 369.739 679.943 369.852 679.943 369.852C679.134 370.087 678.421 370.576 677.912 371.248C676.977 372.494 676.802 374.788 677.014 377.181C677.228 379.247 677.802 381.259 678.709 383.127C679.395 384.536 679.993 385.346 679.906 385.409Z" fill="#E0E0E0"/>
<path d="M671.155 367.358C671.018 367.246 672.115 366.249 673.823 366.249C675.531 366.249 676.628 367.221 676.49 367.346C675.61 367.151 674.719 367.005 673.823 366.91C672.926 367.013 672.036 367.163 671.155 367.358Z" fill="#E0E0E0"/>
<path d="M643.282 365.451C643.282 365.451 643.469 365.289 643.88 365.252C644.476 365.242 645.055 365.445 645.513 365.825C645.875 366.117 646.144 366.509 646.286 366.952C646.427 367.395 646.436 367.87 646.311 368.318C646.164 368.861 645.855 369.347 645.425 369.71C644.996 370.073 644.465 370.296 643.905 370.35C643.345 370.366 642.793 370.217 642.317 369.923C641.841 369.628 641.461 369.2 641.225 368.692C641.036 368.284 640.954 367.833 640.987 367.384C641.019 366.935 641.166 366.501 641.412 366.124C641.724 365.627 642.187 365.242 642.733 365.027C643.12 364.89 643.344 364.903 643.357 364.94C642.72 365.262 642.185 365.754 641.811 366.361C641.641 366.68 641.552 367.035 641.552 367.396C641.552 367.757 641.641 368.112 641.811 368.431C642.012 368.813 642.316 369.132 642.688 369.353C643.06 369.573 643.486 369.685 643.918 369.677C644.347 369.628 644.753 369.454 645.085 369.177C645.418 368.9 645.662 368.533 645.788 368.119C645.894 367.779 645.9 367.416 645.805 367.074C645.71 366.731 645.518 366.423 645.252 366.187C644.713 365.699 644.008 365.436 643.282 365.451V365.451Z" fill="#E0E0E0"/>
<path d="M645.364 351.153C645.364 351.228 644.691 351.789 643.781 352.923C642.59 354.377 641.787 356.11 641.449 357.959C641.111 359.808 641.249 361.713 641.849 363.494C642.297 364.878 642.784 365.651 642.696 365.713C642.121 365.138 641.693 364.432 641.45 363.656C640.692 361.817 640.479 359.799 640.837 357.843C641.195 355.887 642.109 354.075 643.469 352.624C643.966 351.982 644.618 351.476 645.364 351.153V351.153Z" fill="#E0E0E0"/>
<path d="M643.968 385.409C643.295 384.828 642.747 384.115 642.36 383.314C640.685 380.394 640.027 377.001 640.49 373.666C640.605 372.668 640.988 371.72 641.599 370.924C642.023 370.393 642.603 370.009 643.257 369.827C643.719 369.714 643.993 369.827 643.993 369.827C643.182 370.059 642.468 370.549 641.961 371.223C641.026 372.469 640.851 374.763 641.063 377.156C641.272 379.223 641.846 381.237 642.759 383.103C643.457 384.536 644.055 385.346 643.968 385.409Z" fill="#E0E0E0"/>
<path d="M635.217 367.358C635.079 367.246 636.176 366.249 637.884 366.249C639.592 366.249 640.689 367.221 640.552 367.346C639.672 367.151 638.781 367.005 637.884 366.91C636.988 367.012 636.097 367.161 635.217 367.358V367.358Z" fill="#E0E0E0"/>
<path d="M738.295 418.954C738.295 418.954 701.646 409.48 695.014 421.945C688.382 434.411 687.223 520.349 687.223 520.349C687.223 520.349 740.14 522.306 740.265 520.075C740.389 517.844 738.295 418.954 738.295 418.954Z" fill="#F5F5F5"/>
<path d="M740.29 418.555C740.29 418.555 716.094 412.322 709.487 421.534C702.88 430.746 701.135 520.786 701.135 520.786C701.135 520.786 739.779 521.92 740.539 521.147C741.3 520.374 740.29 418.555 740.29 418.555Z" fill="#EBEBEB"/>
<path d="M726.091 463.419C726.091 463.419 726.178 463.194 726.552 463.144C726.817 463.126 727.08 463.192 727.304 463.333C727.528 463.474 727.702 463.683 727.799 463.93C728.07 464.579 728.152 465.292 728.036 465.987C727.988 466.456 727.781 466.896 727.45 467.233C727.257 467.4 727.029 467.522 726.783 467.589C726.537 467.656 726.279 467.666 726.029 467.62C725.691 467.564 725.374 467.419 725.111 467.2C724.848 466.981 724.648 466.695 724.533 466.373C724.335 465.825 724.335 465.225 724.533 464.678C724.837 463.946 725.394 463.348 726.104 462.995V463.257C725.705 463.07 725.493 462.957 725.518 462.907C725.543 462.858 725.767 462.908 726.203 462.97L726.465 463.032L726.241 463.232C725.681 463.649 725.249 464.215 724.994 464.865C724.906 465.073 724.864 465.298 724.87 465.524C724.876 465.75 724.931 465.972 725.03 466.175C725.129 466.378 725.271 466.557 725.445 466.701C725.62 466.845 725.823 466.95 726.041 467.009C726.196 467.035 726.355 467.029 726.508 466.99C726.66 466.951 726.803 466.881 726.926 466.783C727.05 466.685 727.151 466.563 727.224 466.424C727.297 466.284 727.34 466.131 727.35 465.974C727.465 465.383 727.443 464.773 727.288 464.191C727.233 464.013 727.129 463.853 726.988 463.729C726.847 463.606 726.675 463.524 726.49 463.493C726.278 463.344 726.128 463.456 726.091 463.419Z" fill="#E0E0E0"/>
<path d="M719.21 447.138C719.819 447.787 720.335 448.517 720.743 449.307C721.853 451.146 722.835 453.058 723.685 455.029C724.543 456.998 725.267 459.022 725.854 461.088C726.155 461.927 726.339 462.804 726.403 463.693C726.203 463.693 725.081 459.853 723.087 455.291C721.092 450.729 719.098 447.138 719.21 447.138Z" fill="#E0E0E0"/>
<path d="M733.658 448.597C733.82 448.684 732.175 452.037 730.367 456.251C728.56 460.464 727.226 463.942 727.051 463.88C728.461 458.478 730.689 453.325 733.658 448.597V448.597Z" fill="#E0E0E0"/>
<path d="M719.373 492.713C719.393 491.419 719.535 490.129 719.796 488.861C720.158 486.493 720.756 483.251 721.554 479.686C722.352 476.121 723.212 472.942 723.898 470.649C724.197 469.395 724.614 468.172 725.144 466.996C724.966 468.262 724.691 469.512 724.321 470.736C723.748 473.055 722.963 476.246 722.165 479.799C721.367 483.351 720.694 486.567 720.22 488.898C720.035 490.19 719.752 491.465 719.373 492.713V492.713Z" fill="#E0E0E0"/>
<path d="M733.62 482.853C733.433 482.853 732.374 479.225 730.616 474.887C728.859 470.549 727.026 467.171 727.188 467.083C727.762 467.703 728.233 468.41 728.584 469.178C729.577 470.94 730.455 472.764 731.215 474.638C731.981 476.507 732.63 478.422 733.159 480.372C733.441 481.17 733.596 482.007 733.62 482.853V482.853Z" fill="#E0E0E0"/>
<path d="M83.3851 275.275L82.6929 323.637L143.182 324.503L143.875 276.141L83.3851 275.275Z" fill="#EBEBEB"/>
<path d="M85.4223 278.359L84.8174 320.626L141.057 321.431L141.662 279.164L85.4223 278.359Z" fill="#F5F5F5"/>
<path d="M84.8291 320.625L104.836 294.621L116.766 311.238L125.155 302.562L141.062 321.423L84.8291 320.625Z" fill="#EBEBEB"/>
<path d="M122.213 291.655C122.201 292.53 121.929 293.382 121.433 294.102C120.936 294.823 120.237 295.381 119.424 295.704C118.611 296.028 117.72 296.103 116.864 295.92C116.008 295.737 115.226 295.304 114.616 294.677C114.006 294.049 113.595 293.255 113.437 292.394C113.278 291.534 113.378 290.645 113.724 289.841C114.071 289.038 114.647 288.354 115.382 287.878C116.116 287.402 116.975 287.155 117.85 287.167C118.432 287.174 119.007 287.295 119.541 287.524C120.076 287.754 120.56 288.087 120.965 288.504C121.371 288.921 121.69 289.414 121.904 289.955C122.118 290.495 122.223 291.073 122.213 291.655Z" fill="#EBEBEB"/>
<path d="M41.8915 4.3406L41 66.625L118.902 67.74L119.794 5.45559L41.8915 4.3406Z" fill="#EBEBEB"/>
<path d="M44.5144 8.31838L43.7354 62.7502L116.166 63.7869L116.945 9.35506L44.5144 8.31838Z" fill="#F5F5F5"/>
<path d="M43.7363 62.7478L69.5153 29.2775L84.8729 50.6686L95.6682 39.5118L116.162 63.7824L43.7363 62.7478Z" fill="#EBEBEB"/>
<path d="M91.8912 25.4506C91.8762 26.5802 91.5266 27.6799 90.8864 28.6107C90.2462 29.5414 89.3442 30.2613 88.2947 30.6793C87.2452 31.0972 86.0953 31.1945 84.9905 30.9586C83.8858 30.7228 82.8758 30.1645 82.0884 29.3545C81.301 28.5444 80.7717 27.519 80.5673 26.4079C80.363 25.2969 80.4928 24.1502 80.9404 23.113C81.388 22.0758 82.1333 21.1947 83.0818 20.5812C84.0304 19.9677 85.1396 19.6494 86.2692 19.6666C87.0184 19.6763 87.7583 19.8337 88.4465 20.1299C89.1348 20.426 89.7579 20.855 90.2801 21.3923C90.8023 21.9295 91.2135 22.5646 91.4899 23.261C91.7664 23.9573 91.9027 24.7014 91.8912 25.4506V25.4506Z" fill="#EBEBEB"/>
<path d="M574.46 29.6219L573.481 97.964L658.962 99.1874L659.94 30.8454L574.46 29.6219Z" fill="#EBEBEB"/>
<path d="M577.339 33.9651L576.484 93.7068L655.957 94.8443L656.812 35.1026L577.339 33.9651Z" fill="#F5F5F5"/>
<path d="M576.48 93.7095L604.765 56.9733L621.631 80.446L633.473 68.1923L655.949 94.8439L576.48 93.7095Z" fill="#EBEBEB"/>
<path d="M629.322 52.7724C629.3 54.0027 628.914 55.199 628.213 56.2104C627.512 57.2217 626.527 58.003 625.383 58.4557C624.239 58.9083 622.986 59.0122 621.783 58.754C620.58 58.4959 619.48 57.8875 618.622 57.0053C617.764 56.1231 617.186 55.0067 616.962 53.7968C616.738 52.5869 616.876 51.3376 617.361 50.2064C617.845 49.0752 618.653 48.1127 619.684 47.4402C620.715 46.7677 621.921 46.4153 623.152 46.4274C623.974 46.4355 624.787 46.6064 625.544 46.9303C626.3 47.2542 626.985 47.7246 627.559 48.3145C628.132 48.9044 628.583 49.602 628.886 50.3671C629.189 51.1322 629.337 51.9497 629.322 52.7724V52.7724Z" fill="#EBEBEB"/>
<path d="M528.408 145L528 173.49L563.635 174L564.042 145.51L528.408 145Z" fill="#EBEBEB"/>
<path d="M529.608 146.811L529.251 171.715L562.382 172.189L562.738 147.285L529.608 146.811Z" fill="#F5F5F5"/>
<path d="M529.25 171.716L541.041 156.402L548.072 166.187L553.009 161.079L562.378 172.189L529.25 171.716Z" fill="#EBEBEB"/>
<path d="M551.278 154.651C551.269 155.164 551.108 155.662 550.816 156.084C550.524 156.506 550.113 156.831 549.636 157.02C549.159 157.209 548.637 157.252 548.135 157.144C547.634 157.037 547.175 156.783 546.818 156.415C546.46 156.048 546.219 155.582 546.126 155.078C546.032 154.573 546.09 154.053 546.292 153.581C546.494 153.11 546.831 152.708 547.26 152.428C547.69 152.148 548.193 152.001 548.706 152.006C549.049 152.009 549.388 152.08 549.703 152.215C550.018 152.35 550.304 152.547 550.543 152.792C550.782 153.038 550.97 153.329 551.096 153.648C551.223 153.967 551.284 154.308 551.278 154.651V154.651Z" fill="#EBEBEB"/>
<path d="M377.745 348.901L376.806 414.538L458.908 415.714L459.848 350.076L377.745 348.901Z" fill="#EBEBEB"/>
<path d="M380.515 353.068L379.693 410.441L456.025 411.534L456.846 354.161L380.515 353.068Z" fill="#F5F5F5"/>
<path d="M379.681 410.428L406.856 375.15L423.049 397.701L434.417 385.933L456.008 411.525L379.681 410.428Z" fill="#EBEBEB"/>
<path d="M430.441 371.124C430.424 372.312 430.054 373.468 429.38 374.447C428.705 375.425 427.756 376.181 426.651 376.62C425.547 377.059 424.337 377.16 423.175 376.911C422.013 376.662 420.951 376.075 420.123 375.222C419.295 374.37 418.739 373.291 418.524 372.123C418.309 370.954 418.445 369.748 418.916 368.657C419.387 367.565 420.17 366.638 421.168 365.992C422.165 365.347 423.332 365.011 424.52 365.028C425.309 365.039 426.088 365.206 426.813 365.519C427.537 365.831 428.193 366.283 428.743 366.849C429.293 367.415 429.726 368.084 430.017 368.818C430.309 369.551 430.453 370.335 430.441 371.124V371.124Z" fill="#EBEBEB"/>
<path d="M726.166 564.927C726.166 565.126 591.838 565.276 426.18 565.276C260.521 565.276 126.166 565.126 126.166 564.927C126.166 564.727 260.465 564.59 426.18 564.59C591.894 564.59 726.166 564.74 726.166 564.927Z" fill="#263238"/>
<path d="M637.515 157.516L636.347 239.17L738.48 240.632L739.648 158.978L637.515 157.516Z" fill="#EBEBEB"/>
<path d="M737.635 155.966H735.703H730.156L709.238 155.742L635.492 154.832L635.791 154.558C635.454 178.853 635.068 206.714 634.657 236.195L634.332 235.859L736.476 237.38L736.202 237.641C736.613 213.059 736.95 192.69 737.186 178.43C737.311 171.299 737.423 165.715 737.486 161.875C737.486 159.98 737.56 158.522 737.585 157.512C737.61 156.503 737.585 155.991 737.585 155.991C737.585 155.991 737.585 156.478 737.585 157.45C737.585 158.422 737.585 159.943 737.585 161.775C737.585 165.59 737.498 171.162 737.423 178.268C737.249 192.566 737.012 212.997 736.713 237.654V237.928H736.438L634.332 236.47H634.008V236.145C634.445 206.664 634.856 178.804 635.255 154.508V154.196H635.542L709.463 155.443L730.318 155.817L735.803 155.929H737.211L737.635 155.966Z" fill="#263238"/>
<path d="M638.968 159.703L637.947 231.074L732.913 232.433L733.934 161.062L638.968 159.703Z" fill="#F3A84E"/>
<path d="M637.923 231.072L671.73 187.18L691.874 215.228L706.023 200.593L732.886 232.431L637.923 231.072Z" fill="#F3A84E"/>
<path d="M701.074 182.169C701.051 183.648 700.591 185.088 699.751 186.305C698.91 187.522 697.728 188.463 696.353 189.009C694.978 189.554 693.472 189.68 692.026 189.369C690.58 189.059 689.258 188.327 688.228 187.265C687.197 186.204 686.505 184.86 686.238 183.405C685.972 181.95 686.142 180.449 686.729 179.091C687.315 177.733 688.291 176.579 689.533 175.776C690.775 174.973 692.227 174.556 693.706 174.578C694.689 174.592 695.658 174.8 696.56 175.19C697.462 175.579 698.279 176.142 698.963 176.847C699.647 177.552 700.185 178.385 700.548 179.298C700.91 180.212 701.089 181.187 701.074 182.169Z" fill="#F3A84E"/>
<path opacity="0.2" d="M637.923 231.072L671.73 187.18L691.874 215.228L706.023 200.593L732.886 232.431L637.923 231.072Z" fill="black"/>
<g opacity="0.2">
<path opacity="0.2" d="M701.074 182.169C701.051 183.648 700.591 185.088 699.751 186.305C698.91 187.522 697.728 188.463 696.353 189.009C694.978 189.554 693.472 189.68 692.026 189.369C690.58 189.059 689.258 188.327 688.228 187.265C687.197 186.204 686.505 184.86 686.238 183.405C685.972 181.95 686.142 180.449 686.729 179.091C687.315 177.733 688.291 176.579 689.533 175.776C690.775 174.973 692.227 174.556 693.706 174.578C694.689 174.592 695.658 174.8 696.56 175.19C697.462 175.579 698.279 176.142 698.963 176.847C699.647 177.552 700.185 178.385 700.548 179.298C700.91 180.212 701.089 181.187 701.074 182.169Z" fill="black"/>
</g>
<path d="M245.253 3.18394L243.86 86.826L365.587 88.3233L366.98 4.68128L245.253 3.18394Z" fill="#EBEBEB"/>
<path d="M370 1.74368H367.715L361.132 1.68986L336.291 1.45306L248.702 0.495118L249 0.247559C248.59 25.2511 248.13 53.9249 247.646 84.2671L247.323 83.9765L368.609 85.5264L368.336 85.7632C368.808 60.4476 369.205 39.4804 369.478 24.8098C369.627 17.4691 369.752 11.7214 369.839 7.78198C369.839 5.82303 369.913 4.31614 369.938 3.29361C369.963 2.27109 369.938 1.73292 369.938 1.73292C369.938 1.73292 369.938 2.2388 369.938 3.2398V7.68511C369.938 11.6138 369.826 17.3722 369.727 24.6698C369.528 39.3727 369.23 60.3937 368.87 85.7632V86H368.609L247.323 84.5469H247V84.2671C247.509 53.9249 247.994 25.2618 248.416 0.247559V0H248.714L336.477 1.21627L361.244 1.58222L367.777 1.70062H369.441L370 1.74368Z" fill="#263238"/>
<path d="M251.745 5.49605L250.527 78.6078L363.704 80L364.921 6.88822L251.745 5.49605Z" fill="#F3A84E"/>
<path opacity="0.3" d="M251.745 5.49605L250.527 78.6078L363.704 80L364.921 6.88822L251.745 5.49605Z" fill="white"/>
<path d="M251 78.6283L291.214 34L315.198 62.5187L332.025 47.632L364 80L251 78.6283Z" fill="#F3A84E"/>
<path d="M318.679 36.0156C323.556 35.4437 326.971 31.5819 326.305 27.3902C325.64 23.1985 321.146 20.2641 316.269 20.8361C311.392 21.408 307.977 25.2697 308.643 29.4615C309.308 33.6532 313.802 36.5876 318.679 36.0156Z" fill="#F3A84E"/>
<path d="M539.824 258.082L539.244 298.604L589.937 299.329L590.517 258.808L539.824 258.082Z" fill="#EBEBEB"/>
<path d="M589.517 257.798H585.777L575.381 257.723L538.831 257.349L539.131 257.063C538.968 269.13 538.781 282.954 538.582 297.576L538.27 297.252H540.016H541.761H545.226L552.057 297.352L565.209 297.551L588.893 297.938L588.632 298.199C588.856 286.033 589.055 275.948 589.18 268.855C589.267 265.34 589.33 262.56 589.367 260.628C589.367 259.706 589.367 258.97 589.429 258.446C589.492 257.923 589.429 257.674 589.429 257.674C589.429 257.674 589.429 257.91 589.429 258.384V260.516C589.429 262.435 589.429 265.19 589.429 268.693C589.367 275.824 589.267 285.971 589.155 298.212V298.474H588.881L565.134 298.174L551.983 298L545.164 297.9H541.686H539.941H538.196C538.482 298.199 537.797 297.501 537.871 297.564C538.096 282.941 538.295 269.117 538.482 257.05V256.764H538.781L575.518 257.437L585.839 257.661L588.557 257.736H589.242L589.517 257.798Z" fill="#263238"/>
<path d="M540.291 259.663L539.784 295.086L586.912 295.761L587.419 260.337L540.291 259.663Z" fill="#F3A84E"/>
<path opacity="0.3" d="M540.291 259.663L539.784 295.086L586.912 295.761L587.419 260.337L540.291 259.663Z" fill="white"/>
<path d="M540.028 295.071L556.807 273.293L566.804 287.217L573.822 279.95L587.16 295.756L540.028 295.071Z" fill="#F3A84E"/>
<path d="M571.367 270.8C571.366 271.543 571.145 272.27 570.73 272.886C570.315 273.503 569.726 273.982 569.037 274.263C568.349 274.543 567.592 274.612 566.865 274.46C566.137 274.309 565.471 273.944 564.952 273.412C564.432 272.88 564.083 272.206 563.949 271.475C563.814 270.743 563.901 269.989 564.198 269.307C564.494 268.626 564.987 268.048 565.613 267.648C566.24 267.247 566.971 267.043 567.714 267.06C568.691 267.083 569.62 267.487 570.302 268.186C570.985 268.885 571.367 269.823 571.367 270.8Z" fill="#F3A84E"/>
<path d="M0.958391 181.318L0.378418 221.84L51.071 222.565L51.6509 182.044L0.958391 181.318Z" fill="#EBEBEB"/>
<path d="M52.6509 181.035H48.9112L38.5148 180.96L1.96562 180.586L2.26478 180.299C2.10273 192.366 1.91574 206.19 1.71629 220.812L1.40465 220.488H3.14983H4.89502H8.36046L15.1916 220.588L28.3429 220.787L52.0276 221.174L51.7658 221.436C51.9902 209.269 52.1897 199.185 52.3143 192.092C52.4016 188.576 52.4639 185.796 52.5013 183.864C52.5013 182.942 52.5013 182.206 52.5636 181.683C52.626 181.159 52.5636 180.91 52.5636 180.91C52.5636 180.91 52.5636 181.147 52.5636 181.621V183.752C52.5636 185.672 52.5636 188.427 52.5636 191.93C52.5013 199.06 52.4016 209.207 52.2894 221.448V221.71H52.0152L28.2681 221.411L15.1169 221.236L8.29815 221.137H4.82023H3.07504H1.32986C1.61657 221.436 0.930949 220.738 1.00574 220.8C1.23012 206.178 1.4296 192.353 1.61659 180.287V180H1.91575L38.652 180.673L48.9735 180.897L51.691 180.972H52.3767L52.6509 181.035Z" fill="#263238"/>
<path d="M3.42546 182.899L2.91846 218.323L50.0462 218.997L50.5532 183.574L3.42546 182.899Z" fill="#F3A84E"/>
<path opacity="0.3" d="M3.42546 182.899L2.91846 218.323L50.0462 218.997L50.5532 183.574L3.42546 182.899Z" fill="white"/>
<path d="M3.16211 218.307L19.9408 196.529L29.9383 210.454L36.9564 203.186L50.2947 218.993L3.16211 218.307Z" fill="#F3A84E"/>
<path d="M34.5009 194.036C34.5007 194.78 34.279 195.506 33.8641 196.123C33.4492 196.739 32.8599 197.219 32.1714 197.499C31.483 197.779 30.7266 197.848 29.9989 197.696C29.2712 197.545 28.6051 197.18 28.0858 196.648C27.5664 196.116 27.2173 195.442 27.083 194.711C26.9487 193.98 27.0353 193.225 27.3318 192.544C27.6283 191.862 28.1212 191.284 28.7476 190.884C29.3739 190.484 30.1053 190.279 30.8484 190.297C31.8251 190.319 32.754 190.723 33.4366 191.422C34.1192 192.121 34.5011 193.059 34.5009 194.036Z" fill="#F3A84E"/>
<path d="M120.337 118.991L119.532 175.23L189.881 176.237L190.686 119.998L120.337 118.991Z" fill="#EBEBEB"/>
<path d="M188.681 118.046H187.335H183.508L169.098 117.921L118.325 117.336L118.624 117.061C118.4 133.803 118.138 152.987 117.851 173.294C117.926 173.369 117.253 172.67 117.552 172.97H118.799H120.045H122.464L127.275 173.044L136.762 173.182L155.011 173.456L187.958 173.967L187.684 174.229C187.983 157.325 188.232 143.301 188.407 133.479C188.507 128.58 188.581 124.753 188.631 122.06C188.631 120.813 188.693 119.754 188.706 119.043C188.718 118.333 188.706 117.996 188.706 117.996C188.706 117.996 188.706 118.32 188.706 118.993C188.706 119.667 188.706 120.676 188.706 121.96C188.706 124.603 188.706 128.43 188.619 133.304C188.507 143.177 188.357 157.263 188.17 174.241V174.503H187.896L154.924 174.141L136.674 173.88L127.201 173.755L122.376 173.68H119.958H118.711H117.465C117.739 173.967 117.054 173.281 117.128 173.344C117.44 153.037 117.714 133.853 117.963 117.111V116.812H118.25L169.197 117.685L183.545 117.971L187.285 118.059H188.245L188.681 118.046Z" fill="#263238"/>
<path d="M121.716 120.566L121.013 169.726L186.413 170.662L187.117 121.502L121.716 120.566Z" fill="#F3A84E"/>
<path d="M120.008 169.729L143.281 139.487L157.168 158.809L166.904 148.724L185.415 170.664L120.008 169.729Z" fill="#F3A84E"/>
<path d="M163.501 136.034C163.486 137.052 163.169 138.043 162.591 138.881C162.013 139.719 161.2 140.367 160.254 140.743C159.307 141.119 158.271 141.206 157.275 140.993C156.28 140.78 155.369 140.276 154.66 139.546C153.951 138.815 153.474 137.891 153.289 136.89C153.105 135.888 153.222 134.855 153.625 133.92C154.029 132.985 154.7 132.19 155.555 131.637C156.409 131.084 157.409 130.796 158.427 130.811C159.103 130.821 159.771 130.963 160.392 131.231C161.013 131.499 161.575 131.886 162.046 132.372C162.517 132.857 162.888 133.43 163.138 134.058C163.387 134.686 163.511 135.358 163.501 136.034Z" fill="#F3A84E"/>
<path opacity="0.1" d="M121.008 169.729L144.281 139.487L158.168 158.809L167.904 148.724L186.415 170.664L121.008 169.729Z" fill="black"/>
<g opacity="0.1">
<path opacity="0.5" d="M164.501 136.034C164.486 137.052 164.169 138.043 163.591 138.881C163.013 139.719 162.2 140.367 161.254 140.743C160.307 141.119 159.271 141.206 158.275 140.993C157.28 140.78 156.369 140.276 155.66 139.546C154.951 138.815 154.474 137.891 154.289 136.89C154.105 135.888 154.222 134.855 154.625 133.92C155.029 132.985 155.7 132.191 156.555 131.637C157.409 131.084 158.409 130.796 159.427 130.811C160.103 130.821 160.771 130.963 161.392 131.231C162.013 131.499 162.575 131.887 163.046 132.372C163.517 132.857 163.888 133.43 164.138 134.058C164.387 134.686 164.511 135.358 164.501 136.034Z" fill="#DB9746"/>
</g>
<path d="M477.121 50.784L476.583 88.3391L523.561 89.0115L524.099 51.4564L477.121 50.784Z" fill="#EBEBEB"/>
<path d="M523.09 50.4376C523.011 50.4507 522.931 50.4507 522.853 50.4376H519.612L509.976 50.4002L476.107 50.1011L476.394 49.8144C476.244 61.0334 476.082 73.8107 475.895 87.3609L475.583 87.0368H477.204H478.824H482.041L488.361 87.124L500.552 87.311L522.554 87.6725L522.28 87.9343C522.504 76.7152 522.679 67.3161 522.816 60.7467C522.89 57.4807 522.953 54.9128 522.99 53.1177C522.99 52.2576 522.99 51.5845 523.053 51.0859C523.115 50.5872 523.053 50.3753 523.053 50.3753C523.064 50.5954 523.064 50.8159 523.053 51.036V53.0056C523.053 54.7881 523.053 57.3436 523.053 60.5722C522.99 67.1915 522.903 76.603 522.803 87.9966V88.2709H522.541L500.54 87.9966L488.348 87.8346L482.016 87.7473H478.8H477.179H475.558L475.234 87.4232C475.446 73.8606 475.633 61.0459 475.808 49.8642V49.4778H476.107L510.151 50.1135L519.724 50.3254H522.217H522.853L523.09 50.4376Z" fill="#263238"/>
<path d="M477.695 52.1509L477.225 84.982L520.9 85.6071L521.37 52.776L477.695 52.1509Z" fill="#F3A84E"/>
<path d="M477.229 84.9799L492.774 64.798L502.036 77.7L508.555 70.9685L520.909 85.6156L477.229 84.9799Z" fill="#F3A84E"/>
<path d="M506.237 62.4919C506.227 63.1723 506.015 63.8344 505.629 64.3946C505.243 64.9548 504.699 65.3879 504.067 65.6391C503.434 65.8903 502.742 65.9484 502.076 65.806C501.411 65.6636 500.803 65.327 500.329 64.839C499.855 64.3509 499.536 63.7332 499.413 63.064C499.29 62.3948 499.368 61.7041 499.637 61.0793C499.907 60.4545 500.355 59.9236 500.926 59.5537C501.498 59.1839 502.166 58.9917 502.846 59.0015C503.757 59.0179 504.625 59.3941 505.261 60.0479C505.896 60.7018 506.247 61.5803 506.237 62.4919Z" fill="#F3A84E"/>
<path opacity="0.1" d="M477.229 84.9799L492.774 64.798L502.036 77.7L508.555 70.9685L520.909 85.6156L477.229 84.9799Z" fill="black"/>
<g opacity="0.1">
<path opacity="0.1" d="M506.237 62.4919C506.227 63.1723 506.015 63.8344 505.629 64.3946C505.243 64.9548 504.699 65.3879 504.067 65.6391C503.434 65.8903 502.742 65.9484 502.076 65.806C501.411 65.6636 500.803 65.327 500.329 64.839C499.855 64.3509 499.536 63.7332 499.413 63.064C499.29 62.3948 499.368 61.7041 499.637 61.0793C499.907 60.4545 500.355 59.9236 500.926 59.5537C501.498 59.1839 502.166 58.9917 502.846 59.0015C503.757 59.0179 504.625 59.3941 505.261 60.0479C505.896 60.7018 506.247 61.5803 506.237 62.4919Z" fill="black"/>
</g>
<path d="M286.794 168.412L284.377 314.245L495.583 316.856L498 171.022L286.794 168.412Z" fill="#F5F5F5"/>
<path d="M501 167.979H499.99H497.103L485.656 167.879L442.437 167.418L289.772 165.673L290.104 165.386C289.396 208.768 288.66 258.518 287.736 311.196L287.361 310.872L498.589 313.477L498.272 313.751C499.066 269.821 499.715 233.406 500.192 207.958C500.437 195.221 500.625 185.239 500.755 178.422C500.827 175.02 500.884 172.415 500.928 170.645C500.971 168.876 501 167.954 501 167.954C501 167.954 501 168.838 501 170.583C501 172.328 501 174.933 500.913 178.322C500.827 185.114 500.682 195.084 500.509 207.796C500.119 233.281 499.571 269.746 498.921 313.726V314H498.618L287.375 311.445H287V311.096C287.881 258.468 288.718 208.718 289.454 165.287V165H289.786L442.567 167.119L485.713 167.729L497.103 167.904H499.99L501 167.979Z" fill="#263238"/>
<path d="M296.928 174.69L294.816 302.163L491.171 304.59L493.284 177.117L296.928 174.69Z" fill="#F3A84E"/>
<path opacity="0.2" d="M294 302.576L364.126 224L405.916 274.214L435.267 248.014L491 305L294 302.576Z" fill="black"/>
<g opacity="0.2">
<path opacity="0.2" d="M422.526 214.811C422.489 217.454 421.668 220.027 420.169 222.204C418.669 224.38 416.557 226.064 414.101 227.04C411.645 228.017 408.954 228.243 406.369 227.69C403.784 227.137 401.421 225.83 399.579 223.934C397.737 222.038 396.499 219.638 396.021 217.038C395.543 214.439 395.847 211.755 396.894 209.328C397.941 206.901 399.685 204.839 401.904 203.403C404.124 201.967 406.719 201.222 409.362 201.261C412.903 201.317 416.277 202.774 418.745 205.315C421.213 207.855 422.572 211.27 422.526 214.811Z" fill="black"/>
</g>
<path d="M287.835 346.554L285.666 344.808V344.609L285.578 344.721L271.293 333.253L277.426 323.156L262.642 312.36C262.642 313.083 248.929 333.552 250.787 337.516C253.429 343.188 271.33 354.519 278.66 358.994C276.662 359.245 274.684 359.632 272.739 360.154C270.869 360.764 276.965 362.385 278.436 362.647C279.009 362.759 280.193 361.849 281.44 360.627L281.789 360.827L282.175 359.904C283.522 358.53 284.771 357.064 285.915 355.516C286.242 353.9 286.306 352.241 286.102 350.605L287.835 346.554Z" fill="#FFBE9D"/>
<path d="M331.951 341.53L334.12 339.797V339.598L334.207 339.71L350.549 329.276L334.768 316.462L348.418 304.619C358.964 312.099 373.062 321.834 368.986 332.492C366.767 338.339 348.455 349.508 341.125 353.971C343.122 354.233 345.1 354.625 347.047 355.142C348.904 355.753 342.821 357.361 341.35 357.636C340.776 357.76 339.592 356.838 338.333 355.629L337.997 355.828L337.635 354.893C336.289 353.518 335.039 352.052 333.895 350.505C333.581 348.891 333.522 347.238 333.721 345.606L331.951 341.53Z" fill="#FFBE9D"/>
<path d="M306.384 293.151C307.743 293.252 309.108 293.079 310.399 292.641C311.69 292.203 312.879 291.51 313.896 290.603C314.913 289.695 315.736 288.592 316.317 287.359C316.899 286.127 317.226 284.789 317.279 283.428C317.491 277.918 317.678 272.346 317.678 272.346C317.678 272.346 326.03 271.56 326.64 263.283C327.251 255.006 326.964 235.921 326.964 235.921C322.384 233.612 317.27 232.568 312.15 232.896C307.031 233.225 302.092 234.915 297.845 237.791L296.598 238.664L297.059 283.153C297.088 285.682 298.06 288.109 299.785 289.958C301.51 291.807 303.863 292.946 306.384 293.151Z" fill="#FFBE9D"/>
<path d="M305.997 225.176C301.011 225.026 296.399 228.317 294.068 232.368C291.736 236.42 291.225 241.094 291.001 245.669C290.739 254.633 290.952 263.604 291.637 272.545C291.6 273.221 291.803 273.887 292.21 274.427C292.826 274.936 293.593 275.225 294.392 275.25C309.691 277.374 325.208 277.399 340.514 275.325C341.524 273.505 340.116 271.336 338.483 269.94C336.85 268.544 334.83 267.26 334.244 265.303C333.322 262.211 336.388 258.895 335.192 255.879C334.294 253.61 331.315 252.5 330.268 250.282C328.51 246.542 333.048 242.067 331.028 238.464C329.981 236.582 327.525 235.747 326.042 234.176C324.671 232.792 324.072 230.91 322.888 229.389C320.77 227.02 317.807 225.574 314.636 225.363C311.816 224.902 308.946 224.839 306.109 225.176" fill="#263238"/>
<path d="M294.205 234.637C292.073 235.684 291.151 238.227 290.839 240.583C290.527 242.939 290.615 245.42 289.592 247.576C288.57 249.733 286.364 251.653 285.79 254.133C285.042 257.337 287.162 261.127 285.254 263.819C284.008 265.552 281.602 265.988 280.081 267.472C277.987 269.528 278.174 272.907 278.51 275.824L306.122 275.587" fill="#263238"/>
<path d="M304.202 231.733C305.799 231.716 307.325 231.076 308.455 229.948C309.585 228.821 310.229 227.296 310.248 225.699C310.152 224.103 309.504 222.589 308.415 221.418C307.325 220.247 305.863 219.491 304.277 219.279C302.684 219.147 301.088 219.5 299.7 220.293C298.312 221.085 297.195 222.279 296.499 223.717C295.811 225.024 295.646 226.544 296.037 227.968C296.54 229.355 297.545 230.503 298.855 231.184C300.172 231.917 301.654 232.301 303.161 232.301C304.669 232.301 306.151 231.917 307.468 231.184" fill="#263238"/>
<path d="M309.662 226.397C309.767 227.127 309.646 227.871 309.313 228.529C308.648 230.202 307.364 231.555 305.727 232.305C304.09 233.055 302.226 233.145 300.525 232.555C299.278 232.094 298.63 231.483 298.68 231.433C298.73 231.384 299.415 231.795 300.649 232.107C302.243 232.55 303.943 232.419 305.449 231.735C306.956 231.051 308.174 229.859 308.889 228.367C309.463 227.195 309.55 226.372 309.662 226.397Z" fill="#F3A84E"/>
<path d="M338.308 322.632L331.44 315.277L329.171 326.122L329.645 334.549C329.645 334.973 338.608 357.112 338.608 357.112C342.273 365.515 343.753 374.709 342.908 383.838L277.264 381.931C277.264 381.931 278.224 362.821 285.604 350.318C288.969 344.597 288.097 335.97 286.539 329.426C286.04 327.357 285.379 323.941 285.117 321.822V321.46L281.677 327.469L261.121 312.622C267.803 299.745 277.601 286.731 278.772 285.759C283.047 282.175 288.428 280.176 294.005 280.099L319.572 280.324C320.922 280.462 322.254 280.733 323.549 281.134C326.678 281.358 332.213 284.001 338.346 289.86C343.519 294.846 349.278 300.83 355.361 305.267L338.283 322.57" fill="#455A64"/>
<path d="M295.726 280.872C295.726 280.872 295.875 280.972 296.137 281.234C296.492 281.625 296.817 282.041 297.109 282.48C298.23 284.053 298.949 285.876 299.204 287.791C299.42 289.219 299.308 290.677 298.876 292.055C298.444 293.433 297.703 294.695 296.71 295.744C295.532 297.016 293.984 297.888 292.285 298.237C290.503 298.598 288.695 298.237 286.962 298.536C286.122 298.647 285.328 298.987 284.669 299.521C284.044 300.081 283.536 300.759 283.173 301.515C282.375 302.999 281.926 304.619 280.966 305.99C280.536 306.687 279.952 307.275 279.259 307.711C278.582 308.103 277.81 308.301 277.027 308.284C275.682 308.211 274.372 307.827 273.2 307.162C271.493 306.273 269.987 305.043 268.775 303.547C268.453 303.151 268.158 302.735 267.89 302.301C267.715 302.001 267.628 301.827 267.653 301.814C267.678 301.802 268.089 302.425 268.974 303.41C270.221 304.804 271.723 305.947 273.4 306.776C274.518 307.377 275.758 307.718 277.027 307.773C277.711 307.78 278.384 307.599 278.972 307.249C279.576 306.842 280.086 306.311 280.468 305.691C281.303 304.445 281.789 302.799 282.599 301.241C283.005 300.416 283.563 299.676 284.245 299.06C284.991 298.444 285.892 298.047 286.85 297.913C288.745 297.638 290.59 297.975 292.161 297.638C293.731 297.32 295.167 296.528 296.274 295.37C297.297 294.318 298.049 293.035 298.468 291.63C298.828 290.418 298.942 289.147 298.805 287.89C298.585 286.034 297.955 284.25 296.96 282.667C296.199 281.446 295.676 280.91 295.726 280.872Z" fill="#F5F5F5"/>
<path d="M297.945 309.443C298.29 309.262 298.677 309.176 299.067 309.194C300.142 309.191 301.189 309.542 302.046 310.191C302.648 310.633 303.139 311.209 303.479 311.874C303.872 312.643 304.024 313.511 303.916 314.367C303.836 315.373 303.444 316.329 302.795 317.101C302.146 317.873 301.272 318.424 300.295 318.677C299.318 318.929 298.287 318.871 297.345 318.509C296.403 318.148 295.598 317.502 295.04 316.661C294.525 315.956 294.23 315.115 294.193 314.243C294.17 313.491 294.324 312.744 294.641 312.061C295.068 311.076 295.815 310.264 296.76 309.755C297.092 309.552 297.469 309.436 297.857 309.418C297.857 309.481 297.483 309.593 296.898 309.979C296.067 310.531 295.423 311.322 295.053 312.248C294.77 312.907 294.663 313.629 294.744 314.341C294.825 315.054 295.09 315.733 295.514 316.312C296.011 317.042 296.721 317.602 297.548 317.913C298.374 318.225 299.277 318.273 300.132 318.052C300.988 317.831 301.754 317.351 302.326 316.678C302.899 316.006 303.249 315.172 303.33 314.293C303.413 313.587 303.313 312.871 303.037 312.216C302.762 311.56 302.322 310.987 301.759 310.553C300.987 309.926 300.045 309.544 299.054 309.456C298.356 309.406 297.957 309.493 297.945 309.443Z" fill="#F5F5F5"/>
<path d="M344.179 296.878C343.687 297.222 343.161 297.514 342.609 297.751C341.152 298.492 339.634 299.105 338.071 299.583C335.7 300.318 333.162 300.318 330.791 299.583C329.373 299.132 328.108 298.294 327.139 297.165C326.154 295.981 325.543 294.535 324.583 293.425C324.141 292.865 323.555 292.434 322.888 292.179C322.217 291.962 321.507 291.894 320.806 291.979C319.388 292.265 317.936 292.353 316.493 292.241C315.252 292.038 314.086 291.515 313.108 290.724C312.131 289.933 311.377 288.9 310.921 287.728C310.345 286.146 310.345 284.411 310.921 282.829C311.074 282.393 311.274 281.975 311.519 281.583C311.694 281.333 311.794 281.209 311.819 281.221C311.57 281.758 311.349 282.307 311.158 282.867C310.713 284.397 310.788 286.032 311.37 287.516C311.824 288.587 312.545 289.524 313.464 290.237C314.382 290.951 315.468 291.417 316.618 291.593C318.013 291.69 319.415 291.589 320.781 291.293C321.579 291.195 322.388 291.276 323.15 291.53C323.929 291.837 324.609 292.35 325.119 293.014C326.154 294.26 326.752 295.719 327.613 296.816C328.504 297.857 329.664 298.633 330.966 299.06C333.224 299.779 335.646 299.809 337.922 299.147C339.477 298.715 341.002 298.178 342.484 297.539C343.029 297.27 343.596 297.049 344.179 296.878Z" fill="#F5F5F5"/>
<path d="M335.142 347.164C335.121 347.23 335.092 347.293 335.055 347.351C334.98 347.464 334.88 347.638 334.731 347.85C334.274 348.46 333.733 349.002 333.123 349.458C332.146 350.193 331.024 350.712 329.832 350.979C328.24 351.315 326.584 351.176 325.07 350.58C323.222 349.863 321.668 348.546 320.657 346.84C319.535 345.12 318.663 342.951 316.755 341.854C315.717 341.343 314.6 341.01 313.452 340.869C312.162 340.705 310.944 340.182 309.937 339.361C308.915 338.443 308.201 337.232 307.891 335.894C307.581 334.556 307.691 333.155 308.204 331.882C308.816 330.632 309.717 329.546 310.834 328.715C311.881 327.905 312.978 327.219 313.913 326.422C314.863 325.704 315.596 324.737 316.032 323.629C316.342 322.527 316.41 321.37 316.232 320.239C316.06 319.112 315.956 317.975 315.92 316.836C315.907 315.708 316.218 314.6 316.818 313.644C317.392 312.83 318.135 312.149 318.995 311.646C319.855 311.143 320.813 310.83 321.804 310.727C323.426 310.551 325.064 310.868 326.503 311.637C327.581 312.188 328.568 312.898 329.433 313.744C329.976 314.268 330.476 314.835 330.929 315.439C331.098 315.645 331.248 315.867 331.378 316.1C331.378 316.1 330.704 315.24 329.258 313.931C328.384 313.14 327.402 312.477 326.341 311.961C324.96 311.265 323.402 310.996 321.866 311.189C320.947 311.292 320.061 311.592 319.268 312.067C318.474 312.542 317.792 313.182 317.266 313.944C316.734 314.812 316.466 315.817 316.494 316.836C316.545 317.954 316.653 319.069 316.818 320.176C317.023 321.394 316.955 322.641 316.618 323.829C316.154 325.048 315.36 326.114 314.325 326.908C313.34 327.743 312.243 328.429 311.233 329.226C310.188 329.957 309.333 330.927 308.74 332.056C308.272 333.206 308.17 334.472 308.449 335.681C308.728 336.891 309.374 337.984 310.298 338.812C312.081 340.508 314.848 340.059 316.992 341.306C317.986 341.936 318.818 342.789 319.423 343.799C320.021 344.734 320.52 345.681 321.056 346.554C321.989 348.181 323.436 349.453 325.17 350.169C326.601 350.758 328.174 350.918 329.695 350.63C330.85 350.406 331.945 349.943 332.911 349.271C333.745 348.672 334.496 347.963 335.142 347.164Z" fill="#F5F5F5"/>
<path d="M305.648 362.248C305.974 361.897 306.202 361.468 306.309 361.001C306.36 360.331 306.257 359.658 306.009 359.034C305.761 358.41 305.373 357.85 304.875 357.399C304.19 356.695 303.595 355.907 303.105 355.055C302.61 354.011 302.408 352.852 302.519 351.702C302.644 349.309 303.766 346.878 303.479 344.285C303.452 343.677 303.294 343.081 303.017 342.539C302.739 341.998 302.349 341.521 301.871 341.144C300.898 340.518 299.746 340.229 298.593 340.321C296.349 340.433 294.329 341.268 292.522 341.293C291.803 341.351 291.081 341.265 290.396 341.04C289.711 340.816 289.077 340.457 288.533 339.984C288.25 339.72 288.021 339.402 287.86 339.049C287.748 338.8 287.723 338.663 287.748 338.663C288.02 339.079 288.342 339.46 288.707 339.797C289.776 340.607 291.114 340.977 292.447 340.832C294.167 340.757 296.112 339.897 298.518 339.722C299.832 339.591 301.151 339.912 302.258 340.632C302.809 341.062 303.262 341.605 303.586 342.224C303.911 342.843 304.1 343.525 304.14 344.223C304.402 347.052 303.255 349.496 303.13 351.702C303.01 352.752 303.174 353.815 303.604 354.781C304.058 355.602 304.606 356.368 305.237 357.062C305.784 357.677 306.208 358.393 306.483 359.169C306.674 359.765 306.708 360.4 306.583 361.014C306.284 362.036 305.623 362.273 305.648 362.248Z" fill="#F5F5F5"/>
<path d="M279.595 368.381C278.348 370.251 229.333 554.892 229.333 554.892L246.636 560.352L312.704 384.811L279.595 368.381Z" fill="#FFBE9D"/>
<path d="M309.45 383.153L345.85 558.831L365.87 559.629L342.896 373.853L309.45 383.153Z" fill="#FFBE9D"/>
<path d="M280.517 361.837L244.23 491.367L271.006 502.449L309.463 393.537L332.748 506.849L360.834 501.314L341.699 363.881L339.081 363.532C337.492 363.328 335.878 363.412 334.319 363.781L332.574 364.205C330.591 364.685 328.523 364.685 326.541 364.205L325.294 363.906C323.448 363.47 321.529 363.444 319.672 363.831L316.568 364.467C314.281 364.948 311.907 364.797 309.7 364.03L306.608 362.971C304.518 362.249 302.278 362.073 300.101 362.46L297.172 362.983C295.544 363.27 293.878 363.245 292.26 362.909L287.274 361.886C285.222 361.46 283.111 361.409 281.041 361.737L280.517 361.837Z" fill="#263238"/>
<path d="M329.445 386.469C328.915 386.682 328.363 386.837 327.8 386.93C326.728 387.179 325.169 387.503 323.25 387.89C319.398 388.663 314.062 389.61 308.129 390.458C302.195 391.305 296.81 391.904 292.896 392.24C290.939 392.415 289.356 392.539 288.259 392.589C287.691 392.651 287.118 392.651 286.551 392.589C287.103 392.449 287.666 392.358 288.234 392.315L292.846 391.766C296.748 391.305 302.12 390.645 308.042 389.797C313.963 388.949 319.261 388.064 323.162 387.416L327.75 386.656C328.308 386.544 328.876 386.481 329.445 386.469Z" fill="#455A64"/>
<path d="M367.066 559.591L366.979 557.497L345.788 558.108L345.962 564.989H347.271C353.092 565.126 376.877 565.338 380.716 564.141C385.067 562.845 367.066 559.591 367.066 559.591Z" fill="#F3A84E"/>
<g opacity="0.6">
<path opacity="0.6" d="M353.641 564.64C353.264 562.962 352.255 561.493 350.824 560.539C349.361 559.547 347.595 559.106 345.837 559.292L345.999 564.765L353.641 564.64Z" fill="white"/>
</g>
<g opacity="0.6">
<path opacity="0.6" d="M375.867 561.474C375.867 561.474 382.187 562.982 381.439 563.967C380.691 564.952 356.645 565.575 346.012 564.989V564.553L374.059 564.042C374.059 564.042 374.645 561.548 375.867 561.474Z" fill="white"/>
</g>
<path d="M345.713 564.553C345.833 564.564 345.954 564.564 346.074 564.553H347.109H350.936C354.177 564.553 358.652 564.553 363.576 564.428C368.5 564.303 372.988 564.091 376.216 563.904L380.031 563.655L381.078 563.568C381.194 563.576 381.311 563.576 381.427 563.568H381.065H380.031L376.204 563.742C372.975 563.88 368.513 564.066 363.576 564.191C358.64 564.316 354.177 564.366 350.936 564.378H347.109H346.074L345.713 564.553Z" fill="#263238"/>
<path d="M374.085 564.316C374.236 563.722 374.458 563.149 374.745 562.608C375.099 562.091 375.518 561.622 375.992 561.212C375.359 561.428 374.83 561.873 374.509 562.458C374.127 562.997 373.975 563.665 374.085 564.316Z" fill="#263238"/>
<path d="M367.789 561.573C367.789 561.573 368.126 561.274 368.425 560.813C368.724 560.352 368.911 559.953 368.849 559.915C368.787 559.878 368.5 560.227 368.201 560.688C367.902 561.15 367.727 561.548 367.789 561.573Z" fill="#263238"/>
<path d="M366.057 560.788C366.057 560.788 366.431 560.614 366.78 560.302C367.129 559.99 367.378 559.704 367.341 559.654C367.303 559.604 366.954 559.816 366.605 560.14C366.256 560.464 366.007 560.738 366.057 560.788Z" fill="#263238"/>
<path d="M364.922 558.968C365.277 559.077 365.651 559.111 366.019 559.068C366.391 559.097 366.764 559.05 367.116 558.931C366.762 558.82 366.388 558.786 366.019 558.831C365.648 558.802 365.275 558.848 364.922 558.968Z" fill="#263238"/>
<path d="M364.511 557.672C365.295 558.032 366.19 558.072 367.004 557.784C366.589 557.745 366.172 557.745 365.757 557.784C365.345 557.714 364.929 557.677 364.511 557.672Z" fill="#263238"/>
<path d="M368.45 559.853C368.896 559.929 369.351 559.929 369.796 559.853C370.283 559.788 370.763 559.68 371.23 559.529C371.51 559.441 371.781 559.329 372.04 559.192C372.119 559.152 372.188 559.095 372.244 559.026C372.299 558.958 372.34 558.879 372.364 558.794C372.383 558.699 372.372 558.601 372.334 558.512C372.297 558.423 372.233 558.348 372.153 558.295C371.632 558.066 371.051 558.015 370.498 558.15C369.946 558.285 369.454 558.599 369.098 559.043C368.9 559.296 368.759 559.59 368.687 559.903C368.657 560.013 368.657 560.129 368.687 560.24C368.814 559.845 369.012 559.477 369.273 559.155C369.569 558.802 369.964 558.546 370.407 558.42C370.925 558.221 371.498 558.221 372.015 558.42C372.24 558.557 372.165 558.793 371.928 558.931C371.692 559.067 371.441 559.176 371.18 559.255C370.728 559.412 370.266 559.537 369.796 559.629C368.961 559.803 368.45 559.816 368.45 559.853Z" fill="#263238"/>
<path d="M368.799 559.903C368.878 559.774 368.93 559.63 368.952 559.48C368.973 559.33 368.964 559.177 368.924 559.03C368.872 558.697 368.735 558.384 368.525 558.12C368.402 557.932 368.234 557.777 368.035 557.67C367.837 557.564 367.616 557.508 367.39 557.51C367.325 557.52 367.262 557.544 367.206 557.579C367.15 557.615 367.102 557.661 367.064 557.716C367.027 557.771 367.001 557.833 366.989 557.898C366.976 557.964 366.977 558.031 366.992 558.095C367.023 558.299 367.104 558.492 367.228 558.656C367.417 558.932 367.639 559.183 367.889 559.404C368.112 559.629 368.385 559.796 368.687 559.891C368.687 559.891 368.413 559.666 368.026 559.28C367.8 559.058 367.599 558.811 367.428 558.544C367.241 558.282 367.104 557.809 367.428 557.746C367.752 557.684 368.113 558.008 368.325 558.245C368.521 558.482 368.661 558.758 368.737 559.055C368.786 559.335 368.806 559.619 368.799 559.903Z" fill="#263238"/>
<path d="M345.975 559.18C345.975 559.18 346.573 559.118 347.533 559.18C348.764 559.291 349.946 559.721 350.961 560.427C351.937 561.112 352.702 562.058 353.167 563.156C353.516 563.992 353.566 564.553 353.616 564.553C353.635 564.42 353.635 564.286 353.616 564.154C353.56 563.798 353.473 563.447 353.354 563.107C352.918 561.947 352.14 560.947 351.123 560.24C350.071 559.514 348.834 559.104 347.558 559.055C347.17 559.031 346.781 559.052 346.398 559.118C346.255 559.116 346.112 559.138 345.975 559.18Z" fill="#263238"/>
<path d="M356.234 562.658C358.279 562.961 360.36 562.923 362.392 562.546C362.392 562.483 361.008 562.546 359.313 562.621C357.618 562.695 356.246 562.583 356.234 562.658Z" fill="#263238"/>
<path d="M352.107 562.758C352.107 562.758 352.232 563.032 352.382 563.319C352.531 563.605 352.619 563.867 352.681 563.855C352.743 563.842 352.781 563.543 352.606 563.219C352.432 562.895 352.157 562.708 352.107 562.758Z" fill="#263238"/>
<path d="M350.5 561C350.5 561 350.599 561.249 350.824 561.449C351.048 561.648 351.26 561.773 351.31 561.723C351.36 561.673 351.223 561.474 350.998 561.274C350.774 561.075 350.549 560.95 350.5 561Z" fill="#263238"/>
<path d="M348.256 560.24C348.256 560.24 348.543 560.24 348.854 560.389C349.166 560.539 349.403 560.626 349.453 560.589C349.502 560.551 349.328 560.277 348.929 560.165C348.53 560.053 348.231 560.177 348.256 560.24Z" fill="#263238"/>
<path d="M346.66 559.891C346.66 559.953 346.76 560.053 346.934 560.115C347.109 560.177 347.271 560.115 347.296 560.115C347.321 560.115 347.196 559.953 347.022 559.903C346.847 559.853 346.673 559.828 346.66 559.891Z" fill="#263238"/>
<path d="M229.471 551.09L226.342 564.864H247.496L248.406 555.902L229.471 551.09Z" fill="#F3A84E"/>
<path d="M247.882 562.857C246.863 563.04 245.826 563.107 244.791 563.057C242.884 563.057 240.253 563.057 237.312 562.932L229.832 562.608C228.803 562.623 227.776 562.531 226.766 562.334C227.782 562.159 228.815 562.096 229.845 562.147C231.752 562.147 234.382 562.147 237.324 562.284L244.741 562.608C245.794 562.59 246.846 562.674 247.882 562.857Z" fill="#263238"/>
<path d="M238.969 553.77C239.179 555.25 239.179 556.752 238.969 558.233C238.967 559.729 238.757 561.219 238.346 562.658C238.121 561.179 238.121 559.674 238.346 558.195C238.334 556.697 238.544 555.206 238.969 553.77Z" fill="#263238"/>
<path opacity="0.6" d="M226.342 564.864H247.496L247.695 562.857L226.728 562.346L226.342 564.627" fill="white"/>
<path d="M211.158 254.121C229.065 254.121 243.581 239.605 243.581 221.698C243.581 203.791 229.065 189.275 211.158 189.275C193.251 189.275 178.735 203.791 178.735 221.698C178.735 239.605 193.251 254.121 211.158 254.121Z" fill="#455A64"/>
<path d="M225.656 248.437L247.919 254.133L237.461 235.672L225.656 248.437Z" fill="#455A64"/>
<path d="M202.482 219.08L197.732 224.665L209.924 234.774L227.575 217.26L222.427 212.685L209.575 225.088L202.482 219.08Z" fill="white"/>
<path d="M117.019 529.634L122.083 564.874H151.494L158.318 530.134L117.019 529.634Z" fill="#EBEBEB"/>
<path d="M154.197 552.212C154.197 552.32 146.659 552.401 137.374 552.401C128.089 552.401 120.539 552.32 120.539 552.212C120.539 552.104 128.076 552.037 137.374 552.037C146.672 552.037 154.197 552.118 154.197 552.212Z" fill="#FAFAFA"/>
<path d="M154.312 550.483C154.312 550.59 146.723 550.671 137.374 550.671C128.025 550.671 120.424 550.59 120.424 550.483C120.424 550.375 128.076 550.307 137.374 550.307C146.672 550.307 154.312 550.388 154.312 550.483Z" fill="#FAFAFA"/>
<path d="M154.261 548.523C154.261 548.631 146.609 548.712 137.311 548.712C128.013 548.712 120.36 548.631 120.36 548.523C120.36 548.416 127.949 548.348 137.311 548.348C146.672 548.348 154.261 548.429 154.261 548.523Z" fill="#FAFAFA"/>
<path d="M125.449 562.86C125.038 561.411 124.739 559.929 124.556 558.428C124.249 556.948 124.061 555.443 123.995 553.929C124.403 555.379 124.701 556.861 124.888 558.361C125.195 559.841 125.383 561.346 125.449 562.86Z" fill="#FAFAFA"/>
<path d="M127.452 562.496C127.253 561.058 127.134 559.61 127.095 558.158C126.941 556.718 126.877 555.269 126.903 553.821C127.221 555.234 127.4 556.679 127.439 558.131C127.592 559.581 127.597 561.045 127.452 562.496Z" fill="#FAFAFA"/>
<path d="M131.099 562.482C130.705 561.036 130.448 559.551 130.334 558.05C130.111 556.558 130.038 555.045 130.117 553.537C130.382 555.016 130.569 556.509 130.678 558.009C130.902 559.49 131.043 560.984 131.099 562.482Z" fill="#FAFAFA"/>
<path d="M133.663 562.671C133.383 561.185 133.246 559.673 133.255 558.158C133.155 556.649 133.198 555.132 133.383 553.632C133.542 555.134 133.615 556.646 133.599 558.158C133.707 559.66 133.729 561.167 133.663 562.671Z" fill="#FAFAFA"/>
<path d="M138.191 562.495C137.98 561.079 137.878 559.646 137.885 558.212C137.764 556.783 137.764 555.345 137.885 553.915C138.095 555.332 138.198 556.764 138.191 558.199C138.311 559.628 138.311 561.066 138.191 562.495Z" fill="#FAFAFA"/>
<path d="M141.507 562.671C141.337 561.206 141.29 559.727 141.367 558.253C141.321 556.772 141.389 555.29 141.571 553.821C141.733 555.291 141.78 556.774 141.711 558.253C141.75 559.729 141.681 561.206 141.507 562.671Z" fill="#FAFAFA"/>
<path d="M144.606 562.212C144.576 560.662 144.661 559.112 144.861 557.577C144.945 556.032 145.141 554.496 145.448 552.983C145.487 554.532 145.406 556.082 145.206 557.618C145.111 559.162 144.911 560.698 144.606 562.212Z" fill="#FAFAFA"/>
<path d="M148.611 561.779C148.619 560.452 148.786 559.13 149.109 557.847C149.316 556.538 149.68 555.262 150.193 554.05C150.015 555.358 149.764 556.653 149.44 557.928C149.23 559.227 148.953 560.513 148.611 561.779Z" fill="#FAFAFA"/>
<path d="M145.779 460.086V460.262L145.639 460.748C145.499 461.221 145.32 461.856 145.078 462.654C144.836 463.451 144.44 464.491 144.185 465.667C143.93 466.842 143.471 468.194 143.114 469.72C142.757 471.247 142.336 472.855 141.979 474.625C141.621 476.395 141.226 478.301 140.843 480.301C140.129 484.354 139.491 488.759 139.032 493.448C138.573 498.137 138.407 502.636 138.344 506.731C138.344 508.771 138.344 510.717 138.344 512.527C138.344 514.338 138.458 516.04 138.548 517.581C138.637 519.121 138.752 520.513 138.841 521.743C138.93 522.972 139.032 524.026 139.122 524.877C139.211 525.729 139.262 526.377 139.313 526.864C139.313 527.066 139.313 527.242 139.313 527.377C139.313 527.512 139.313 527.553 139.313 527.553C139.313 527.553 139.313 527.553 139.313 527.377C139.313 527.202 139.313 527.08 139.236 526.864L138.969 524.891C138.866 524.04 138.739 522.986 138.637 521.756C138.535 520.527 138.369 519.148 138.293 517.594C138.216 516.04 138.088 514.365 138.037 512.541C137.986 510.717 137.961 508.771 137.961 506.731C137.961 502.677 138.191 498.123 138.611 493.421C139.032 488.719 139.721 484.26 140.448 480.233C140.843 478.233 141.201 476.328 141.621 474.558C142.042 472.788 142.412 471.139 142.808 469.653C143.203 468.167 143.586 466.815 143.917 465.599C144.249 464.383 144.568 463.41 144.836 462.599L145.46 460.721L145.626 460.235C145.686 460.136 145.737 460.086 145.779 460.086Z" fill="#EBEBEB"/>
<path d="M140.461 481.908C141.277 479.371 142.894 477.209 145.04 475.787C145.377 475.506 145.774 475.315 146.196 475.233C146.618 475.151 147.053 475.179 147.463 475.314C148.483 475.841 148.573 477.368 148.267 478.53C147.75 480.529 146.568 482.262 144.938 483.408C143.504 484.539 141.707 485.024 139.938 484.76" fill="#EBEBEB"/>
<path d="M138.676 496.637C139.636 493.098 141.52 489.918 144.109 487.462C144.486 487.14 144.919 486.901 145.384 486.759C145.605 486.7 145.836 486.697 146.058 486.751C146.28 486.805 146.486 486.914 146.66 487.07C146.864 487.353 146.999 487.685 147.053 488.036C147.106 488.387 147.076 488.747 146.966 489.084C146.477 491.303 145.416 493.336 143.9 494.953C142.384 496.571 140.474 497.711 138.382 498.245" fill="#EBEBEB"/>
<path d="M138.19 509.622C139.376 506.722 141.264 504.205 143.662 502.326C143.918 502.074 144.219 501.88 144.548 501.757C144.878 501.634 145.227 501.584 145.575 501.609C146.621 501.812 147.093 503.15 146.991 504.312C146.8 506.609 145.154 508.447 143.445 509.865C141.864 511 140.149 511.909 138.343 512.568" fill="#EBEBEB"/>
<path d="M138.459 518.946C139.614 516.725 141.222 514.805 143.165 513.325C143.571 512.988 144.048 512.761 144.556 512.662C144.81 512.61 145.073 512.633 145.316 512.729C145.558 512.824 145.772 512.988 145.933 513.203C146.405 513.933 145.933 514.919 145.461 515.622C143.814 518.046 141.483 519.854 138.803 520.783" fill="#EBEBEB"/>
<path d="M138.229 515.149C136.224 512.54 133.995 510.134 131.571 507.96C131.189 507.622 130.717 507.271 130.296 507.433C130.118 507.51 129.965 507.64 129.856 507.809C129.747 507.977 129.687 508.175 129.684 508.379C129.68 508.787 129.767 509.19 129.939 509.555C130.73 511.421 131.906 513.075 133.381 514.396C134.855 515.718 136.59 516.672 138.459 517.189" fill="#EBEBEB"/>
<path d="M138.446 503.015C136.699 500.758 134.951 498.515 133.217 496.258C132.755 495.577 132.175 494.995 131.508 494.542C131.186 494.289 130.796 494.151 130.396 494.147C129.995 494.142 129.603 494.272 129.276 494.518C128.949 494.764 128.704 495.113 128.576 495.515C128.447 495.918 128.442 496.353 128.562 496.758C128.749 497.566 129.097 498.321 129.582 498.974C130.607 500.635 131.903 502.09 133.408 503.271C134.065 503.859 134.828 504.299 135.65 504.566C136.472 504.833 137.336 504.921 138.191 504.825" fill="#EBEBEB"/>
<path d="M139.173 489.354C138.144 486.119 136.327 483.229 133.905 480.976C133.526 480.567 133.051 480.273 132.528 480.125C131.995 480.082 131.465 480.237 131.028 480.562C130.591 480.887 130.273 481.363 130.13 481.908C129.964 482.523 129.922 483.167 130.005 483.8C130.089 484.433 130.297 485.041 130.615 485.584C131.259 486.648 132.095 487.567 133.076 488.286C134.837 489.716 136.8 490.843 138.892 491.624" fill="#EBEBEB"/>
<path d="M141.265 477.179C140.755 473.247 138.829 469.991 136.597 466.815C136.137 466.153 135.474 465.464 134.696 465.572C134.451 465.628 134.222 465.747 134.03 465.919C133.839 466.091 133.691 466.311 133.599 466.559C133.429 467.06 133.36 467.594 133.395 468.126C133.501 470.499 134.26 472.787 135.579 474.708C136.898 476.629 138.72 478.099 140.818 478.936" fill="#EBEBEB"/>
<path d="M142.731 470.95C142.489 468.943 142.425 466.916 142.54 464.897C142.665 462.863 143.323 460.907 144.44 459.248C144.916 458.531 145.576 457.973 146.341 457.64C146.724 457.48 147.139 457.425 147.547 457.482C147.956 457.539 148.344 457.705 148.675 457.965C148.952 458.242 149.166 458.581 149.303 458.958C149.44 459.334 149.495 459.738 149.466 460.14C149.405 460.946 149.206 461.734 148.879 462.464C147.489 466.018 145.155 469.964 142.731 470.95Z" fill="#EBEBEB"/>
<path d="M119.926 475.625C119.945 475.791 119.945 475.959 119.926 476.125C119.926 476.477 119.926 476.949 119.926 477.476C119.926 478.003 119.926 478.828 119.926 479.719C119.926 480.611 119.926 481.598 120.028 482.706C120.118 484.908 120.322 487.53 120.641 490.421C120.959 493.313 121.444 496.488 122.082 499.785C122.719 503.082 123.523 506.176 124.314 508.974C125.105 511.771 125.921 514.243 126.673 516.311C127.03 517.338 127.413 518.256 127.719 519.013C128.025 519.77 128.306 520.513 128.535 521.08C128.765 521.648 128.931 522.053 129.058 522.432C129.136 522.579 129.192 522.739 129.224 522.905C129.188 522.803 129.158 522.7 129.135 522.594L128.548 521.243C128.293 520.689 127.987 520 127.668 519.189C127.349 518.378 126.954 517.473 126.584 516.486C125.742 514.487 124.913 511.933 124.033 509.082C123.153 506.231 122.439 503.177 121.776 499.88C121.112 496.583 120.666 493.38 120.347 490.421C120.028 487.462 119.863 484.881 119.812 482.679C119.812 481.571 119.812 480.571 119.812 479.692C119.812 478.814 119.812 478.057 119.812 477.436C119.812 476.814 119.812 476.368 119.812 476.085C119.836 475.928 119.874 475.774 119.926 475.625Z" fill="#E0E0E0"/>
<path d="M120.743 491.691C120.775 489.778 121.438 487.938 122.618 486.489C122.785 486.218 123.014 485.996 123.284 485.842C123.553 485.689 123.855 485.609 124.161 485.611C124.977 485.732 125.334 486.759 125.436 487.624C125.488 489.094 125.035 490.535 124.161 491.678C123.412 492.769 122.291 493.506 121.036 493.732" fill="#E0E0E0"/>
<path d="M122.529 502.136C122.445 499.492 123.073 496.877 124.34 494.597C124.524 494.298 124.763 494.041 125.042 493.84C125.183 493.745 125.343 493.687 125.509 493.671C125.675 493.655 125.843 493.68 125.998 493.745C126.202 493.895 126.366 494.098 126.473 494.335C126.581 494.572 126.628 494.834 126.61 495.096C126.729 496.718 126.42 498.343 125.717 499.789C125.014 501.235 123.946 502.445 122.631 503.285" fill="#E0E0E0"/>
<path d="M124.825 511.081C125.035 508.834 125.81 506.688 127.069 504.866C127.193 504.635 127.36 504.434 127.559 504.273C127.759 504.113 127.987 503.998 128.23 503.933C128.97 503.839 129.505 504.636 129.735 505.42C129.821 506.237 129.753 507.064 129.534 507.853C129.315 508.642 128.95 509.376 128.46 510.014C127.624 511.157 126.65 512.179 125.564 513.054" fill="#E0E0E0"/>
<path d="M126.903 517.365C127.232 515.596 127.924 513.926 128.931 512.473C129.144 512.148 129.428 511.884 129.76 511.703C129.918 511.603 130.099 511.55 130.283 511.55C130.467 511.55 130.648 511.603 130.806 511.703C131.265 512.095 131.163 512.865 130.959 513.446C130.348 515.494 129.132 517.28 127.49 518.54" fill="#E0E0E0"/>
<path d="M125.985 514.838C124.081 513.525 122.071 512.394 119.978 511.46C119.823 511.371 119.65 511.325 119.474 511.325C119.298 511.325 119.125 511.371 118.97 511.46C118.863 511.552 118.785 511.676 118.744 511.815C118.703 511.954 118.702 512.103 118.74 512.243C118.83 512.52 118.974 512.773 119.161 512.987C120.084 514.083 121.229 514.944 122.51 515.506C123.791 516.067 125.175 516.315 126.559 516.23" fill="#E0E0E0"/>
<path d="M123.664 506.528L118.715 503.123C118.27 502.759 117.763 502.488 117.223 502.326C116.949 502.253 116.661 502.261 116.392 502.349C116.122 502.437 115.88 502.602 115.692 502.825C115.546 503.077 115.468 503.367 115.468 503.663C115.468 503.959 115.546 504.249 115.692 504.501C115.978 505.034 116.37 505.495 116.84 505.852C117.872 506.75 119.047 507.446 120.309 507.906C120.875 508.157 121.482 508.287 122.095 508.287C122.708 508.287 123.315 508.157 123.881 507.906" fill="#E0E0E0"/>
<path d="M121.381 497.056C120.022 495.087 118.196 493.535 116.088 492.556C115.746 492.367 115.364 492.274 114.978 492.286C114.604 492.377 114.272 492.604 114.039 492.927C113.806 493.25 113.687 493.65 113.703 494.056C113.712 494.512 113.812 494.961 113.996 495.373C114.181 495.786 114.446 496.152 114.774 496.448C115.427 497.049 116.186 497.508 117.006 497.799C118.497 498.369 120.064 498.688 121.649 498.745" fill="#E0E0E0"/>
<path d="M120.322 488.286C119.096 485.851 117.3 483.79 115.106 482.3C114.903 482.093 114.653 481.946 114.38 481.872C114.107 481.799 113.821 481.802 113.55 481.881C113.394 481.979 113.263 482.114 113.168 482.276C113.072 482.439 113.015 482.623 113.001 482.814C112.99 483.192 113.051 483.569 113.18 483.922C113.728 485.52 114.709 486.91 116 487.92C117.291 488.93 118.834 489.513 120.437 489.597" fill="#E0E0E0"/>
<path d="M120.067 483.719C119.495 482.415 119.038 481.058 118.703 479.665C118.357 478.226 118.405 476.712 118.843 475.301C119.028 474.707 119.363 474.179 119.812 473.774C120.041 473.577 120.314 473.447 120.604 473.395C120.895 473.342 121.193 473.371 121.47 473.477C121.721 473.607 121.94 473.796 122.111 474.031C122.281 474.265 122.398 474.538 122.452 474.828C122.567 475.392 122.593 475.972 122.529 476.544C122.299 479.247 121.508 482.49 120.067 483.719Z" fill="#E0E0E0"/>
<path d="M157.106 475.301C157.12 475.463 157.12 475.626 157.106 475.787C157.106 476.152 157.106 476.625 157.106 477.22C157.106 477.814 157.106 478.571 157.106 479.463C157.106 480.355 157.106 481.341 157.106 482.449C157.042 484.665 156.863 487.3 156.57 490.205C156.277 493.11 155.779 496.286 155.142 499.596C154.504 502.907 153.688 506.014 152.884 508.811C152.081 511.608 151.213 514.095 150.435 516.135C150.065 517.175 149.67 518.081 149.351 518.837C149.032 519.594 148.726 520.337 148.471 520.891C148.216 521.445 148.025 521.851 147.884 522.243C147.823 522.395 147.746 522.54 147.655 522.675C147.698 522.517 147.754 522.364 147.821 522.216C147.948 521.878 148.127 521.445 148.344 520.864C148.56 520.283 148.866 519.608 149.173 518.783C149.479 517.959 149.849 517.054 150.206 516.081C150.958 514.027 151.762 511.541 152.578 508.757C153.394 505.974 154.134 502.852 154.797 499.569C155.46 496.286 155.907 493.097 156.251 490.205C156.596 487.313 156.761 484.692 156.851 482.476C156.927 481.382 156.927 480.382 156.953 479.503C156.978 478.625 156.953 477.868 156.953 477.26C156.953 476.652 156.953 476.193 156.953 475.828C156.99 475.648 157.041 475.472 157.106 475.301Z" fill="#EBEBEB"/>
<path d="M156.289 491.354C156.259 489.431 155.601 487.578 154.427 486.111C154.252 485.845 154.02 485.627 153.749 485.476C153.478 485.326 153.177 485.247 152.871 485.246C152.067 485.368 151.697 486.395 151.672 487.246C151.62 488.716 152.073 490.156 152.947 491.3C153.693 492.391 154.817 493.124 156.072 493.34" fill="#EBEBEB"/>
<path d="M154.516 501.799C154.606 499.139 153.973 496.508 152.693 494.218C152.508 493.919 152.27 493.662 151.991 493.461C151.853 493.36 151.692 493.298 151.524 493.282C151.357 493.265 151.188 493.295 151.034 493.367C150.832 493.518 150.67 493.722 150.563 493.958C150.456 494.195 150.407 494.456 150.422 494.718C150.303 496.341 150.614 497.967 151.319 499.414C152.024 500.86 153.096 502.07 154.414 502.907" fill="#EBEBEB"/>
<path d="M152.207 510.73C151.995 508.484 151.22 506.338 149.963 504.514C149.71 504.06 149.297 503.729 148.815 503.596C148.062 503.488 147.476 504.298 147.31 505.082C147.218 505.899 147.284 506.728 147.503 507.518C147.722 508.307 148.09 509.042 148.585 509.676C149.417 510.814 150.386 511.832 151.468 512.703" fill="#EBEBEB"/>
<path d="M150.129 517.027C149.801 515.258 149.108 513.588 148.101 512.135C147.891 511.814 147.611 511.55 147.285 511.365C147.127 511.265 146.946 511.212 146.762 511.212C146.578 511.212 146.397 511.265 146.239 511.365C145.767 511.757 145.869 512.527 146.073 513.122C146.689 515.168 147.904 516.952 149.543 518.216" fill="#EBEBEB"/>
<path d="M151.06 514.487C152.952 513.16 154.959 512.029 157.054 511.108C157.204 511.009 157.374 510.951 157.55 510.939C157.726 510.927 157.902 510.962 158.062 511.041C158.168 511.136 158.247 511.262 158.287 511.404C158.328 511.545 158.329 511.696 158.292 511.838C158.203 512.112 158.064 512.365 157.883 512.581C156.958 513.674 155.813 514.532 154.533 515.094C153.252 515.655 151.869 515.904 150.486 515.824" fill="#EBEBEB"/>
<path d="M153.368 506.19L158.304 502.771C158.757 502.419 159.267 502.158 159.809 502.001C160.079 501.9 160.373 501.892 160.648 501.979C160.923 502.067 161.164 502.244 161.338 502.486C161.511 502.729 161.607 503.023 161.612 503.327C161.617 503.631 161.53 503.928 161.365 504.177C161.084 504.713 160.691 505.175 160.217 505.528C159.185 506.422 158.01 507.113 156.748 507.568C156.184 507.826 155.576 507.958 154.962 507.958C154.348 507.958 153.741 507.826 153.177 507.568" fill="#EBEBEB"/>
<path d="M155.651 496.718C157.013 494.753 158.839 493.201 160.945 492.218C161.287 492.03 161.669 491.937 162.054 491.948C162.427 492.042 162.758 492.269 162.99 492.592C163.223 492.914 163.343 493.312 163.33 493.718C163.32 494.17 163.223 494.616 163.046 495.027C162.868 495.438 162.613 495.807 162.297 496.11C161.639 496.711 160.876 497.17 160.052 497.461C158.561 498.032 156.994 498.351 155.409 498.407" fill="#EBEBEB"/>
<path d="M156.711 487.948C157.952 485.503 159.772 483.44 161.991 481.963C162.191 481.755 162.439 481.608 162.71 481.534C162.981 481.461 163.265 481.464 163.534 481.544C163.691 481.636 163.823 481.768 163.919 481.929C164.015 482.089 164.071 482.273 164.083 482.462C164.099 482.845 164.038 483.228 163.904 483.584C163.355 485.179 162.376 486.567 161.088 487.576C159.8 488.586 158.26 489.171 156.66 489.259" fill="#EBEBEB"/>
<path d="M156.978 483.408C157.548 482.104 158.005 480.747 158.343 479.355C158.669 477.94 158.616 476.456 158.189 475.071C158.01 474.475 157.674 473.946 157.22 473.544C156.991 473.348 156.719 473.216 156.429 473.162C156.139 473.107 155.841 473.132 155.562 473.234C155.311 473.363 155.092 473.553 154.922 473.787C154.751 474.022 154.634 474.295 154.58 474.585C154.484 475.152 154.484 475.733 154.58 476.301C154.797 479.003 155.588 482.26 157.042 483.489" fill="#EBEBEB"/>
</svg>
