<svg width="86" height="86" viewBox="0 0 86 86" fill="none" xmlns="http://www.w3.org/2000/svg">
<rect width="86" height="86" rx="43" fill="url(#paint0_linear_227_1088)"/>
<path d="M42.9999 28.5867C41.5518 28.5867 40.1362 29.0161 38.9322 29.8206C37.7282 30.6251 36.7897 31.7686 36.2356 33.1065C35.6814 34.4443 35.5364 35.9165 35.8189 37.3367C36.1014 38.757 36.7987 40.0616 37.8227 41.0855C38.8466 42.1095 40.1512 42.8068 41.5715 43.0893C42.9918 43.3718 44.4639 43.2268 45.8018 42.6727C47.1396 42.1185 48.2831 41.1801 49.0876 39.976C49.8921 38.772 50.3216 37.3564 50.3216 35.9083C50.3216 33.9665 49.5502 32.1042 48.1771 30.7311C46.804 29.3581 44.9417 28.5867 42.9999 28.5867V28.5867ZM42.9999 40.6744C42.0572 40.6744 41.1358 40.3949 40.352 39.8712C39.5682 39.3475 38.9573 38.6031 38.5966 37.7322C38.2358 36.8614 38.1415 35.903 38.3254 34.9785C38.5093 34.054 38.9632 33.2047 39.6297 32.5382C40.2963 31.8716 41.1455 31.4177 42.0701 31.2338C42.9946 31.0499 43.9529 31.1443 44.8238 31.505C45.6947 31.8658 46.4391 32.4766 46.9628 33.2604C47.4865 34.0442 47.766 34.9657 47.766 35.9083C47.7626 37.1702 47.259 38.3792 46.3655 39.2702C45.4721 40.1613 44.2617 40.6617 42.9999 40.6617V40.6744Z" fill="white"/>
<path d="M43 22.5555C39.02 22.5589 35.203 24.137 32.3827 26.9453C29.5624 29.7537 27.968 33.5639 27.9478 37.5439C27.9478 43.5111 31.2955 48.5072 33.7489 52.1489L34.1961 52.8133C36.637 56.351 39.2555 59.7628 42.0416 63.0355L43.0128 64.1728L43.9839 63.0355C46.7696 59.7625 49.3881 56.3507 51.8294 52.8133L52.2766 52.1361C54.7172 48.4944 58.065 43.5111 58.065 37.5439C58.0447 33.5617 56.4486 29.7495 53.6255 26.9408C50.8025 24.1322 46.9822 22.5555 43 22.5555V22.5555ZM50.1428 50.6667L49.6828 51.3439C47.485 54.6405 44.5716 58.3333 43 60.1605C41.4922 58.3333 38.515 54.6405 36.3172 51.3439L35.87 50.6667C33.6083 47.2933 30.5033 42.6805 30.5033 37.4928C30.5033 35.8517 30.8265 34.2267 31.4546 32.7105C32.0826 31.1943 33.0031 29.8167 34.1635 28.6563C35.3239 27.4959 36.7015 26.5754 38.2177 25.9473C39.7339 25.3193 41.3589 24.9961 43 24.9961C44.6411 24.9961 46.2661 25.3193 47.7822 25.9473C49.2984 26.5754 50.676 27.4959 51.8365 28.6563C52.9969 29.8167 53.9174 31.1943 54.5454 32.7105C55.1734 34.2267 55.4966 35.8517 55.4966 37.4928C55.4966 42.7317 52.4044 47.3444 50.1428 50.6667V50.6667Z" fill="white"/>
<defs>
<linearGradient id="paint0_linear_227_1088" x1="43" y1="0" x2="43" y2="86" gradientUnits="userSpaceOnUse">
<stop stop-color="#3A75D1"/>
<stop offset="1" stop-color="#54BBEC"/>
</linearGradient>
</defs>
</svg>
