<svg width="86" height="86" viewBox="0 0 86 86" fill="none" xmlns="http://www.w3.org/2000/svg">
<rect width="86" height="86" rx="43" fill="url(#paint0_linear_227_1054)"/>
<path d="M55.4327 65.2844C55.003 65.2832 54.5746 65.2361 54.1549 65.1439C46.1645 63.491 38.8032 59.6154 32.9183 53.9633C27.1589 48.2988 23.1645 41.0866 21.4183 33.1994C21.2124 32.2165 21.2629 31.197 21.565 30.2392C21.8671 29.2814 22.4106 28.4175 23.1433 27.7305L28.2544 22.8111C28.5154 22.5642 28.8256 22.3752 29.1647 22.2563C29.5037 22.1374 29.8641 22.0913 30.2221 22.1211C30.5934 22.1598 30.9517 22.2794 31.2718 22.4715C31.5919 22.6635 31.866 22.9234 32.0749 23.2328L38.4638 32.6755C38.7034 33.0419 38.8191 33.4756 38.7937 33.9126C38.7684 34.3496 38.6035 34.767 38.3233 35.1033L35.116 38.9367C36.3934 41.7637 38.2023 44.3188 40.4444 46.4628C42.6719 48.6846 45.3048 50.4586 48.2005 51.6889L52.1744 48.5328C52.5081 48.269 52.9143 48.113 53.3388 48.0857C53.7633 48.0583 54.1861 48.1607 54.551 48.3794L64.1983 54.615C64.5293 54.8127 64.8114 55.0827 65.0233 55.4048C65.2351 55.727 65.3714 56.0929 65.4218 56.4752C65.4722 56.8574 65.4354 57.2462 65.3143 57.6122C65.1931 57.9783 64.9907 58.3122 64.7221 58.5889L59.7388 63.5211C59.1727 64.0844 58.5009 64.5302 57.7619 64.8328C57.0228 65.1354 56.2313 65.2889 55.4327 65.2844V65.2844ZM30.0177 24.6511L24.9066 29.5705C24.4944 29.9546 24.1894 30.4393 24.0213 30.977C23.8533 31.5147 23.8281 32.0868 23.9483 32.6372C25.572 40.0383 29.3043 46.8107 34.6944 52.1361C40.2325 57.4536 47.1599 61.0989 54.6788 62.6522C55.2479 62.7712 55.8377 62.7471 56.3952 62.5821C56.9527 62.417 57.4606 62.1162 57.8733 61.7067L62.8566 56.7744L53.5416 50.7561L49.2738 54.155C49.1104 54.2843 48.9179 54.3717 48.713 54.4096C48.5081 54.4474 48.2971 54.4346 48.0983 54.3722C44.5546 53.0666 41.3432 50.994 38.6938 48.3028C35.9534 45.7437 33.8263 42.5988 32.471 39.1028C32.4137 38.8911 32.4118 38.6683 32.4655 38.4557C32.5192 38.2431 32.6267 38.0479 32.7777 37.8889L36.2277 33.7617L30.0177 24.6511Z" fill="white"/>
<defs>
<linearGradient id="paint0_linear_227_1054" x1="43" y1="0" x2="43" y2="86" gradientUnits="userSpaceOnUse">
<stop stop-color="#3A75D1"/>
<stop offset="1" stop-color="#54BBEC"/>
</linearGradient>
</defs>
</svg>
